<svg width="103" height="28" viewBox="0 0 103 28" fill="none" xmlns="http://www.w3.org/2000/svg">
<g clip-path="url(#clip0_774_294)">
<path d="M6.8468 1H0V7.84062H6.8468V1Z" fill="#7ED321"/>
<path d="M6.8468 9.57617H0V16.4245H6.8468V9.57617Z" fill="#7ED321"/>
<path d="M6.8468 18.1592H0V24.9998H6.8468V18.1592Z" fill="#7ED321"/>
<path d="M24.0001 18.1133H17.1533V24.9539H24.0001V18.1133Z" fill="#7ED321"/>
<path d="M15.4235 18.1133H8.57666V24.9539H15.4235V18.1133Z" fill="#7ED321"/>
<path d="M15.4235 9.5293H8.57666V16.3776H15.4235V9.5293Z" fill="#7ED321"/>
</g>
<path d="M24.4805 0.423999H27.8405L31.5605 7.12H31.0085L34.8725 0.423999H38.2085L32.6645 9.568V16H29.8325V9.568L24.4805 0.423999ZM38.1824 0.423999H41.2784L48.3584 11.536H48.1424V0.423999H50.9744V16H48.0944L40.5584 4.216H41.0144V16H38.1824V0.423999ZM52.7936 0.423999H55.6256V10.12C55.6256 11.4 55.9496 12.324 56.5976 12.892C57.2536 13.46 58.0896 13.744 59.1056 13.744C60.1296 13.744 60.9656 13.46 61.6136 12.892C62.2616 12.324 62.5856 11.4 62.5856 10.12V0.423999H65.4176V10.12C65.4176 11.432 65.1656 12.552 64.6616 13.48C64.1576 14.408 63.4336 15.116 62.4896 15.604C61.5536 16.092 60.4256 16.336 59.1056 16.336C57.7856 16.336 56.6536 16.092 55.7096 15.604C54.7736 15.116 54.0536 14.408 53.5496 13.48C53.0456 12.552 52.7936 11.432 52.7936 10.12V0.423999ZM67.2039 16V0.423999H77.0199V2.872H70.0359V6.976H76.4199V9.4H70.0359V16H67.2039ZM77.9049 16V0.423999H87.9129V2.872H80.7369V6.976H87.4809V9.424H80.7369V13.528H87.9129V16H77.9049ZM95.0388 16.336C93.9588 16.336 92.9628 16.148 92.0508 15.772C91.1468 15.396 90.4108 14.824 89.8428 14.056C89.2828 13.288 88.9828 12.312 88.9428 11.128H91.7268C91.7268 11.728 91.8748 12.22 92.1708 12.604C92.4668 12.988 92.8628 13.276 93.3588 13.468C93.8628 13.652 94.4148 13.744 95.0148 13.744C95.5908 13.744 96.1028 13.668 96.5508 13.516C97.0068 13.364 97.3628 13.148 97.6188 12.868C97.8828 12.58 98.0148 12.24 98.0148 11.848C98.0148 11.328 97.8548 10.92 97.5348 10.624C97.2228 10.328 96.7188 10.056 96.0228 9.808L92.9508 8.584C91.7508 8.112 90.8308 7.564 90.1908 6.94C89.5508 6.316 89.2308 5.456 89.2308 4.36C89.2308 3.096 89.7308 2.072 90.7308 1.288C91.7308 0.503999 93.1268 0.111999 94.9188 0.111999C96.6628 0.111999 98.0108 0.519999 98.9628 1.336C99.9148 2.144 100.455 3.272 100.583 4.72H97.7988C97.6948 4.104 97.4148 3.612 96.9588 3.244C96.5028 2.868 95.8228 2.68 94.9188 2.68C94.1188 2.68 93.4868 2.848 93.0228 3.184C92.5588 3.512 92.3268 3.928 92.3268 4.432C92.3268 4.864 92.4708 5.208 92.7588 5.464C93.0548 5.712 93.5108 5.952 94.1268 6.184L97.5348 7.504C98.6868 7.952 99.5708 8.516 100.187 9.196C100.803 9.876 101.111 10.728 101.111 11.752C101.111 12.688 100.875 13.5 100.403 14.188C99.9308 14.868 99.2428 15.396 98.3388 15.772C97.4348 16.148 96.3348 16.336 95.0388 16.336Z" fill="#7ED321"/>
<path d="M58.1844 16.212H60.2124L62.4084 20.976H62.2884L64.4844 16.212H66.4404V24H65.0124V17.844H65.2284L62.8044 23.148H61.8804L59.4684 17.868H59.6004V24H58.1844V16.212ZM67.7846 18.18H69.3926L70.9406 22.764H70.6886L72.0206 18.18H73.4606L71.2286 25.056C71.0006 25.744 70.7186 26.242 70.3826 26.55C70.0506 26.858 69.6446 27.012 69.1646 27.012C68.8886 27.012 68.6186 26.98 68.3546 26.916C68.0946 26.856 67.8286 26.76 67.5566 26.628V25.38C67.7766 25.516 67.9886 25.616 68.1926 25.68C68.4006 25.744 68.6086 25.776 68.8166 25.776C69.0046 25.776 69.1686 25.724 69.3086 25.62C69.4526 25.52 69.5766 25.378 69.6806 25.194C69.7846 25.014 69.8726 24.804 69.9446 24.564L70.1246 24L67.7846 18.18ZM74.6835 24V16.212H77.4315C78.3075 16.212 78.9895 16.428 79.4775 16.86C79.9695 17.292 80.2155 17.904 80.2155 18.696C80.2155 19.48 79.9695 20.088 79.4775 20.52C78.9895 20.952 78.3075 21.168 77.4315 21.168H76.1115V24H74.6835ZM76.1115 19.932H77.4315C77.8715 19.932 78.2035 19.816 78.4275 19.584C78.6515 19.352 78.7635 19.056 78.7635 18.696C78.7635 18.328 78.6515 18.026 78.4275 17.79C78.2035 17.554 77.8715 17.436 77.4315 17.436H76.1115V19.932ZM85.3885 24L85.2085 22.584V20.244C85.2085 19.836 85.1245 19.534 84.9565 19.338C84.7925 19.142 84.5125 19.044 84.1165 19.044C83.8885 19.044 83.6905 19.078 83.5225 19.146C83.3545 19.214 83.2245 19.312 83.1325 19.44C83.0445 19.564 83.0005 19.716 83.0005 19.896H81.4525C81.4525 19.456 81.5585 19.098 81.7705 18.822C81.9825 18.542 82.2865 18.338 82.6825 18.21C83.0825 18.078 83.5605 18.012 84.1165 18.012C84.6205 18.012 85.0605 18.094 85.4365 18.258C85.8125 18.418 86.1045 18.666 86.3125 19.002C86.5205 19.338 86.6245 19.768 86.6245 20.292V24H85.3885ZM83.4805 24.168C82.9805 24.168 82.5625 24.082 82.2265 23.91C81.8945 23.734 81.6445 23.504 81.4765 23.22C81.3085 22.936 81.2245 22.628 81.2245 22.296C81.2245 21.928 81.3205 21.62 81.5125 21.372C81.7085 21.12 81.9845 20.932 82.3405 20.808C82.6965 20.68 83.1165 20.616 83.6005 20.616C83.9165 20.616 84.2145 20.64 84.4945 20.688C84.7785 20.736 85.0605 20.8 85.3405 20.88V21.708C85.1205 21.636 84.8805 21.58 84.6205 21.54C84.3605 21.5 84.1165 21.48 83.8885 21.48C83.5525 21.48 83.2765 21.542 83.0605 21.666C82.8445 21.79 82.7365 22 82.7365 22.296C82.7365 22.512 82.8245 22.698 83.0005 22.854C83.1765 23.01 83.4565 23.088 83.8405 23.088C84.1325 23.088 84.3805 23.024 84.5845 22.896C84.7885 22.768 84.9425 22.608 85.0465 22.416C85.1545 22.224 85.2085 22.032 85.2085 21.84H85.5445C85.5445 22.26 85.4665 22.648 85.3105 23.004C85.1545 23.356 84.9225 23.638 84.6145 23.85C84.3105 24.062 83.9325 24.168 83.4805 24.168ZM90.944 27.012C90.276 27.012 89.704 26.92 89.228 26.736C88.756 26.552 88.394 26.31 88.142 26.01C87.89 25.714 87.764 25.392 87.764 25.044C87.764 24.632 87.914 24.312 88.214 24.084C88.514 23.86 88.892 23.748 89.348 23.748L90.38 24.132C89.988 24.132 89.686 24.206 89.474 24.354C89.262 24.502 89.156 24.708 89.156 24.972C89.156 25.248 89.314 25.468 89.63 25.632C89.95 25.8 90.388 25.884 90.944 25.884C91.348 25.884 91.698 25.824 91.994 25.704C92.29 25.584 92.518 25.428 92.678 25.236C92.842 25.044 92.924 24.84 92.924 24.624C92.924 24.48 92.876 24.362 92.78 24.27C92.684 24.178 92.536 24.132 92.336 24.132H90.38C89.988 24.132 89.63 24.07 89.306 23.946C88.986 23.818 88.73 23.648 88.538 23.436C88.35 23.22 88.256 22.98 88.256 22.716C88.256 22.472 88.324 22.262 88.46 22.086C88.596 21.906 88.78 21.768 89.012 21.672C89.248 21.576 89.512 21.528 89.804 21.528L90.164 21.996C90.048 21.996 89.936 22.02 89.828 22.068C89.724 22.112 89.638 22.178 89.57 22.266C89.502 22.354 89.468 22.464 89.468 22.596C89.468 22.756 89.536 22.886 89.672 22.986C89.808 23.086 90.044 23.136 90.38 23.136H92.336C92.956 23.136 93.442 23.25 93.794 23.478C94.15 23.706 94.328 24.056 94.328 24.528C94.328 24.948 94.19 25.346 93.914 25.722C93.638 26.102 93.246 26.412 92.738 26.652C92.234 26.892 91.636 27.012 90.944 27.012ZM91.016 22.2C90.556 22.2 90.134 22.114 89.75 21.942C89.37 21.766 89.066 21.522 88.838 21.21C88.61 20.898 88.496 20.532 88.496 20.112C88.496 19.684 88.61 19.312 88.838 18.996C89.066 18.68 89.37 18.438 89.75 18.27C90.134 18.098 90.556 18.012 91.016 18.012C91.464 18.012 91.878 18.098 92.258 18.27C92.638 18.438 92.944 18.68 93.176 18.996C93.408 19.312 93.524 19.684 93.524 20.112C93.524 20.532 93.408 20.898 93.176 21.21C92.944 21.522 92.638 21.766 92.258 21.942C91.878 22.114 91.464 22.2 91.016 22.2ZM91.028 21.216C91.396 21.216 91.672 21.11 91.856 20.898C92.04 20.686 92.132 20.424 92.132 20.112C92.132 19.776 92.038 19.506 91.85 19.302C91.666 19.098 91.388 18.996 91.016 18.996C90.656 18.996 90.38 19.098 90.188 19.302C89.996 19.506 89.9 19.776 89.9 20.112C89.9 20.424 89.996 20.686 90.188 20.898C90.384 21.11 90.664 21.216 91.028 21.216ZM93.08 18.948L92.432 18.576C92.432 18.228 92.512 17.924 92.672 17.664C92.836 17.4 93.052 17.196 93.32 17.052C93.592 16.908 93.892 16.836 94.22 16.836L94.148 18.192C93.8 18.192 93.534 18.254 93.35 18.378C93.17 18.498 93.08 18.688 93.08 18.948ZM97.8564 24.168C97.3604 24.168 96.9064 24.04 96.4944 23.784C96.0824 23.528 95.7524 23.17 95.5044 22.71C95.2564 22.246 95.1324 21.704 95.1324 21.084C95.1324 20.444 95.2544 19.894 95.4984 19.434C95.7464 18.974 96.0764 18.622 96.4884 18.378C96.9004 18.134 97.3564 18.012 97.8564 18.012C98.3204 18.012 98.7204 18.106 99.0564 18.294C99.3964 18.478 99.6684 18.73 99.8724 19.05C100.08 19.366 100.22 19.724 100.292 20.124C100.364 20.524 100.368 20.936 100.304 21.36H96.2604V20.592H99.3024L99.0264 20.772C99.0384 20.584 99.0284 20.394 98.9964 20.202C98.9684 20.01 98.9124 19.834 98.8284 19.674C98.7444 19.514 98.6244 19.386 98.4684 19.29C98.3164 19.19 98.1204 19.14 97.8804 19.14C97.5924 19.14 97.3484 19.212 97.1484 19.356C96.9484 19.5 96.7964 19.696 96.6924 19.944C96.5884 20.192 96.5364 20.472 96.5364 20.784V21.348C96.5364 21.676 96.5844 21.966 96.6804 22.218C96.7804 22.47 96.9264 22.668 97.1184 22.812C97.3144 22.956 97.5604 23.028 97.8564 23.028C98.1324 23.028 98.3644 22.964 98.5524 22.836C98.7404 22.708 98.8604 22.516 98.9124 22.26H100.34C100.28 22.636 100.138 22.968 99.9144 23.256C99.6944 23.54 99.4084 23.764 99.0564 23.928C98.7044 24.088 98.3044 24.168 97.8564 24.168Z" fill="#7ED321"/>
<defs>
<clipPath id="clip0_774_294">
<rect width="24" height="24" fill="white" transform="translate(0 1)"/>
</clipPath>
</defs>
</svg>
