<?xml version="1.0" encoding="UTF-8" standalone="no"?>
<!-- Created with Inkscape (http://www.inkscape.org/) -->

<svg
   xmlns:dc="http://purl.org/dc/elements/1.1/"
   xmlns:cc="http://creativecommons.org/ns#"
   xmlns:rdf="http://www.w3.org/1999/02/22-rdf-syntax-ns#"
   xmlns:svg="http://www.w3.org/2000/svg"
   xmlns="http://www.w3.org/2000/svg"
   xmlns:sodipodi="http://sodipodi.sourceforge.net/DTD/sodipodi-0.dtd"
   xmlns:inkscape="http://www.inkscape.org/namespaces/inkscape"
   version="1.1"
   id="svg2"
   xml:space="preserve"
   width="1145.196"
   height="816.38397"
   viewBox="0 0 1145.196 816.38397"
   sodipodi:docname="YNUFES ロゴ.png"
   inkscape:version="0.92.4 (5da689c313, 2019-01-14)"><metadata
     id="metadata8"><rdf:RDF><cc:Work
         rdf:about=""><dc:format>image/svg+xml</dc:format><dc:type
           rdf:resource="http://purl.org/dc/dcmitype/StillImage" /><dc:title></dc:title></cc:Work></rdf:RDF></metadata><defs
     id="defs6"><clipPath
       clipPathUnits="userSpaceOnUse"
       id="clipPath18"><path
         d="M 0,612.288 H 858.897 V 0 H 0 Z"
         id="path16"
         inkscape:connector-curvature="0" /></clipPath></defs><sodipodi:namedview
     pagecolor="#ffffff"
     bordercolor="#666666"
     borderopacity="1"
     objecttolerance="10"
     gridtolerance="10"
     guidetolerance="10"
     inkscape:pageopacity="0"
     inkscape:pageshadow="2"
     inkscape:window-width="2736"
     inkscape:window-height="1699"
     id="namedview4"
     showgrid="true"
     inkscape:zoom="13.082252"
     inkscape:cx="468.17561"
     inkscape:cy="530.73612"
     inkscape:window-x="-13"
     inkscape:window-y="-13"
     inkscape:window-maximized="1"
     inkscape:current-layer="g14"><inkscape:grid
       type="xygrid"
       id="grid920" /></sodipodi:namedview><g
     id="g10"
     inkscape:groupmode="layer"
     inkscape:label="YNUFES ロゴ"
     transform="matrix(1.3333333,0,0,-1.3333333,0,816.384)"><g
       id="g12"><g
         id="g14"
         clip-path="url(#clipPath18)"><g
           id="g918"
           transform="matrix(0.2802656,0,0,0.2802656,221.99819,281.19164)"><g
             transform="translate(347.1953,423.2583)"
             id="g20"><path
               inkscape:connector-curvature="0"
               id="path22"
               style="fill:#241916;fill-opacity:1;fill-rule:nonzero;stroke:none"
               d="m 0,0 5.78,-0.005 c 1.275,-3.186 2.203,-5.639 2.779,-7.362 h 0.066 c 0.581,1.769 1.499,4.219 2.762,7.355 l 5.915,-0.005 -6.094,-12.113 -0.01,-10.013 -5.219,0.005 0.009,10.013 z" /></g><g
             transform="translate(367.1484,423.2388)"
             id="g24"><path
               inkscape:connector-curvature="0"
               id="path26"
               style="fill:#241916;fill-opacity:1;fill-rule:nonzero;stroke:none"
               d="m 0,0 5.202,-0.005 6.533,-12.773 -0.187,2.389 0.012,10.377 5.148,-0.005 -0.022,-22.132 -5.284,0.007 -6.394,12.571 0.132,-2.75 -0.01,-9.816 -5.151,0.005 z" /></g><g
             transform="translate(388.6001,423.2173)"
             id="g28"><path
               inkscape:connector-curvature="0"
               id="path30"
               style="fill:#241916;fill-opacity:1;fill-rule:nonzero;stroke:none"
               d="M 0,0 5.286,-0.005 5.27,-15.588 c 0,-0.728 0.196,-1.311 0.594,-1.731 0.396,-0.427 0.926,-0.642 1.597,-0.644 0.688,0 1.234,0.227 1.64,0.68 0.402,0.453 0.601,1.075 0.604,1.873 l 0.014,15.4 5.258,-0.004 -0.015,-14.524 c -0.002,-1.978 -0.275,-3.565 -0.805,-4.756 -0.535,-1.191 -1.322,-2.069 -2.359,-2.625 -1.036,-0.557 -2.484,-0.834 -4.342,-0.832 -2.74,0.002 -4.672,0.69 -5.792,2.062 -1.122,1.371 -1.681,3.682 -1.676,6.947 z" /></g><g
             transform="translate(408.2324,423.1982)"
             id="g32"><path
               inkscape:connector-curvature="0"
               id="path34"
               style="fill:#241916;fill-opacity:1;fill-rule:nonzero;stroke:none"
               d="M 0,0 10.419,-0.01 10.414,-4.75 5.145,-4.745 5.14,-8.792 9.784,-8.796 9.779,-13.39 l -4.644,0.005 -0.007,-8.753 -5.149,0.005 z" /></g><g
             transform="translate(422.0171,423.1836)"
             id="g36"><path
               inkscape:connector-curvature="0"
               id="path38"
               style="fill:#241916;fill-opacity:1;fill-rule:nonzero;stroke:none"
               d="M 0,0 10.417,-0.009 10.412,-4.715 5.145,-4.71 5.14,-8.789 l 4.569,-0.004 -10e-4,-4.596 -4.573,0.005 -0.002,-4.026 5.303,-0.007 -0.005,-4.725 -10.452,0.012 z" /></g><g
             transform="translate(436.5098,401.4541)"
             id="g40"><path
               inkscape:connector-curvature="0"
               id="path42"
               style="fill:#241916;fill-opacity:1;fill-rule:nonzero;stroke:none"
               d="m 0,0 0.005,5.157 c 1.63,-0.93 3.001,-1.398 4.113,-1.401 0.646,0 1.153,0.178 1.528,0.523 0.374,0.348 0.563,0.81 0.563,1.384 0,0.441 -0.148,0.855 -0.448,1.241 C 5.463,7.295 4.94,7.763 4.21,8.319 2.429,9.648 1.139,10.883 0.34,12.027 c -0.798,1.146 -1.194,2.417 -1.194,3.827 0.002,1.908 0.624,3.466 1.858,4.667 1.24,1.206 2.839,1.806 4.798,1.803 1.45,0 2.888,-0.304 4.317,-0.918 l -0.007,-4.955 c -1.527,0.82 -2.771,1.232 -3.723,1.234 -0.633,0 -1.137,-0.156 -1.503,-0.455 -0.367,-0.307 -0.552,-0.722 -0.554,-1.251 0,-0.931 0.854,-1.976 2.563,-3.136 C 7.916,12.154 8.946,11.191 9.994,9.944 11.04,8.7 11.564,7.259 11.563,5.624 11.56,3.711 10.874,2.126 9.501,0.877 8.132,-0.376 6.391,-1.002 4.281,-1 2.841,-1 1.417,-0.664 0,0" /></g><g
             transform="translate(451.3496,403.2642)"
             id="g44"><path
               inkscape:connector-curvature="0"
               id="path46"
               style="fill:#241916;fill-opacity:1;fill-rule:nonzero;stroke:none"
               d="m 0,0 c 0.002,0.75 0.275,1.397 0.827,1.935 0.549,0.544 1.215,0.812 1.999,0.81 0.779,0 1.45,-0.269 2.014,-0.806 C 5.398,1.405 5.677,0.765 5.677,0.026 5.674,-0.715 5.389,-1.367 4.818,-1.925 4.243,-2.481 3.579,-2.757 2.819,-2.755 2.037,-2.755 1.371,-2.486 0.824,-1.952 0.272,-1.415 0,-0.763 0,0" /></g></g><g
           id="g960"
           transform="translate(0.00310667)"><g
             transform="translate(323.1831,423.5171)"
             id="g48"><path
               inkscape:connector-curvature="0"
               id="path50"
               style="fill:#d21677;fill-opacity:1;fill-rule:nonzero;stroke:none"
               d="M 0,0 6.578,-0.005 6.571,-6.416 -0.005,-6.411 Z" /></g><g
             transform="translate(323.1831,423.5171)"
             id="g52"><path
               inkscape:connector-curvature="0"
               id="path54"
               style="fill:none;stroke:#241916;stroke-width:0.926;stroke-linecap:round;stroke-linejoin:round;stroke-miterlimit:4;stroke-dasharray:none;stroke-opacity:1"
               d="M 0,0 6.578,-0.005 6.571,-6.416 -0.005,-6.411 Z" /></g><g
             transform="translate(323.1758,415.4834)"
             id="g56"><path
               inkscape:connector-curvature="0"
               id="path58"
               style="fill:#dd5613;fill-opacity:1;fill-rule:nonzero;stroke:none"
               d="M 0,0 6.576,-0.005 6.571,-6.422 -0.007,-6.416 Z" /></g><g
             transform="translate(323.1758,415.4834)"
             id="g60"><path
               inkscape:connector-curvature="0"
               id="path62"
               style="fill:none;stroke:#241916;stroke-width:0.926;stroke-linecap:round;stroke-linejoin:round;stroke-miterlimit:4;stroke-dasharray:none;stroke-opacity:1"
               d="M 0,0 6.576,-0.005 6.571,-6.422 -0.007,-6.416 Z" /></g><g
             transform="translate(323.1685,407.438)"
             id="g64"><path
               inkscape:connector-curvature="0"
               id="path66"
               style="fill:#349cd1;fill-opacity:1;fill-rule:nonzero;stroke:none"
               d="M 0,0 6.576,-0.005 6.569,-6.416 -0.007,-6.408 Z" /></g><g
             transform="translate(323.1685,407.438)"
             id="g68"><path
               inkscape:connector-curvature="0"
               id="path70"
               style="fill:none;stroke:#241916;stroke-width:0.926;stroke-linecap:round;stroke-linejoin:round;stroke-miterlimit:4;stroke-dasharray:none;stroke-opacity:1"
               d="M 0,0 6.576,-0.005 6.569,-6.416 -0.007,-6.408 Z" /></g><g
             transform="translate(339.6504,407.4233)"
             id="g72"><path
               inkscape:connector-curvature="0"
               id="path74"
               style="fill:#4d3086;fill-opacity:1;fill-rule:nonzero;stroke:none"
               d="m 0,0 6.574,-0.007 -0.008,-6.41 -6.573,0.006 z" /></g><g
             transform="translate(339.6504,407.4233)"
             id="g76"><path
               inkscape:connector-curvature="0"
               id="path78"
               style="fill:none;stroke:#241916;stroke-width:0.926;stroke-linecap:round;stroke-linejoin:round;stroke-miterlimit:4;stroke-dasharray:none;stroke-opacity:1"
               d="m 0,0 6.574,-0.007 -0.008,-6.41 -6.573,0.006 z" /></g><g
             transform="translate(331.4082,407.4307)"
             id="g80"><path
               inkscape:connector-curvature="0"
               id="path82"
               style="fill:#f4e82a;fill-opacity:1;fill-rule:nonzero;stroke:none"
               d="M 0,0 6.576,-0.007 6.569,-6.416 -0.007,-6.411 Z" /></g><g
             transform="translate(331.4082,407.4307)"
             id="g84"><path
               inkscape:connector-curvature="0"
               id="path86"
               style="fill:none;stroke:#241916;stroke-width:0.926;stroke-linecap:round;stroke-linejoin:round;stroke-miterlimit:4;stroke-dasharray:none;stroke-opacity:1"
               d="M 0,0 6.576,-0.007 6.569,-6.416 -0.007,-6.411 Z" /></g><g
             transform="translate(331.4155,415.4761)"
             id="g88"><path
               inkscape:connector-curvature="0"
               id="path90"
               style="fill:#8aba29;fill-opacity:1;fill-rule:nonzero;stroke:none"
               d="M 0,0 6.576,-0.007 6.569,-6.422 -0.007,-6.417 Z" /></g><g
             transform="translate(331.4155,415.4761)"
             id="g92"><path
               inkscape:connector-curvature="0"
               id="path94"
               style="fill:none;stroke:#241916;stroke-width:0.926;stroke-linecap:round;stroke-linejoin:round;stroke-miterlimit:4;stroke-dasharray:none;stroke-opacity:1"
               d="M 0,0 6.576,-0.007 6.569,-6.422 -0.007,-6.417 Z" /></g></g></g></g></g></svg>