<svg width="175" height="34" viewBox="0 0 175 34" fill="none" xmlns="http://www.w3.org/2000/svg">
<path d="M31.965 1.763H39.444C41.098 6.168 42.296 9.564 43.048 11.948H43.135C43.88 9.5 45.065 6.106 46.698 1.763H54.347L46.48 18.531V32.387H39.727V18.531L31.965 1.763Z" fill="#241916"/>
<path d="M57.776 1.763H64.504L72.97 19.425L72.729 16.124V1.763H79.386V32.387H72.552L64.265 15.001L64.441 18.806V32.387H57.776V1.763Z" fill="#241916"/>
<path d="M85.525 1.763H92.362V23.327C92.362 24.334 92.616 25.137 93.13 25.721C93.643 26.308 94.331 26.607 95.2 26.607C96.09 26.607 96.799 26.291 97.317 25.664C97.838 25.036 98.096 24.178 98.096 23.072V1.76199H104.895V21.856C104.895 24.594 104.545 26.788 103.858 28.442C103.17 30.088 102.155 31.303 100.813 32.077C99.473 32.847 97.602 33.235 95.2 33.235C91.651 33.235 89.153 32.284 87.701 30.387C86.248 28.492 85.525 25.292 85.525 20.777V1.763Z" fill="#241916"/>
<path d="M110.916 1.763H124.393V8.32199H117.58V13.919H123.584V20.275H117.58V32.387H110.916V1.763Z" fill="#241916"/>
<path d="M128.748 1.763H142.223V8.276H135.408V13.919H141.322V20.275H135.408V25.847H142.27V32.387H128.748V1.763Z" fill="#241916"/>
<path d="M147.523 31.811V24.678C149.628 25.965 151.406 26.608 152.845 26.608C153.675 26.608 154.335 26.362 154.82 25.887C155.302 25.403 155.55 24.761 155.55 23.968C155.55 23.36 155.353 22.784 154.962 22.25C154.577 21.712 153.901 21.062 152.956 20.299C150.649 18.46 148.981 16.75 147.948 15.168C146.913 13.586 146.399 11.827 146.399 9.87799C146.399 7.23799 147.198 5.08099 148.797 3.41299C150.395 1.74599 152.463 0.914001 154.994 0.914001C156.871 0.914001 158.732 1.33301 160.58 2.17801V9.03699C158.601 7.90299 156.994 7.33401 155.76 7.33401C154.942 7.33401 154.295 7.55 153.819 7.966C153.342 8.389 153.106 8.96499 153.106 9.69699C153.106 10.983 154.21 12.428 156.424 14.034C157.744 14.983 159.082 16.316 160.436 18.039C161.79 19.757 162.471 21.752 162.471 24.012C162.471 26.665 161.584 28.854 159.809 30.587C158.039 32.325 155.786 33.192 153.061 33.192C151.199 33.191 149.352 32.729 147.523 31.811Z" fill="#241916"/>
<path d="M166.717 29.287C166.717 28.252 167.071 27.351 167.783 26.607C168.492 25.856 169.353 25.482 170.367 25.482C171.377 25.482 172.244 25.855 172.972 26.596C173.697 27.336 174.058 28.219 174.058 29.244C174.058 30.267 173.685 31.172 172.947 31.943C172.209 32.714 171.347 33.097 170.367 33.097C169.353 33.097 168.492 32.726 167.783 31.986C167.07 31.242 166.717 30.346 166.717 29.287Z" fill="#241916"/>
<path d="M9.41701 1.435H0.908997V10.308H9.41701V1.435Z" fill="#D21677"/>
<path d="M9.41701 1.435H0.908997V10.308H9.41701V1.435Z" stroke="#241916" stroke-width="1.1126" stroke-linecap="round" stroke-linejoin="round"/>
<path d="M9.41701 12.554H0.908997V21.432H9.41701V12.554Z" fill="#DD5513"/>
<path d="M9.41701 12.554H0.908997V21.432H9.41701V12.554Z" stroke="#241916" stroke-width="1.1126" stroke-linecap="round" stroke-linejoin="round"/>
<path d="M9.41701 23.683H0.908997V32.555H9.41701V23.683Z" fill="#339CD1"/>
<path d="M9.41701 23.683H0.908997V32.555H9.41701V23.683Z" stroke="#241916" stroke-width="1.1126" stroke-linecap="round" stroke-linejoin="round"/>
<path d="M30.731 23.683H22.226V32.555H30.731V23.683Z" fill="#4D3086"/>
<path d="M30.731 23.683H22.226V32.555H30.731V23.683Z" stroke="#241916" stroke-width="1.1126" stroke-linecap="round" stroke-linejoin="round"/>
<path d="M20.074 23.683H11.567V32.555H20.074V23.683Z" fill="#F4E82A"/>
<path d="M20.074 23.683H11.567V32.555H20.074V23.683Z" stroke="#241916" stroke-width="1.1126" stroke-linecap="round" stroke-linejoin="round"/>
<path d="M20.074 12.554H11.567V21.432H20.074V12.554Z" fill="#89B929"/>
<path d="M20.074 12.554H11.567V21.432H20.074V12.554Z" stroke="#241916" stroke-width="1.1126" stroke-linecap="round" stroke-linejoin="round"/>
</svg>
