<svg width="279" height="279" viewBox="0 0 279 279" fill="none" xmlns="http://www.w3.org/2000/svg">
<path d="M240.347 104.067C238.871 99.2675 236.943 94.619 234.589 90.184C222.447 67.6184 201.153 50.5939 177.862 40.522C159.37 32.537 136.503 28.3631 116.884 35.5558C106.963 39.1939 97.6219 46.1578 92.3042 55.4485C85.3738 67.5794 86.0267 82.584 80.5248 95.3343C76.0608 105.652 64.9678 111.851 56.2741 118.212C42.7092 128.1 29.3451 139.79 24.6411 156.513C18.3692 178.806 20.2273 205.344 32.9218 225.17C42.4078 239.962 58.6456 244.404 75.4024 244.7C91.2161 244.984 110.556 240.989 125.315 248.204C150.459 260.48 183.638 274.263 211.772 264.548C240.788 254.532 255 235.024 259.202 209.719C263.404 184.413 251.825 163.332 248.131 143.317C245.832 130.656 244.309 116.678 240.347 104.067Z" fill="#92E3A9"/>
<path opacity="0.8" d="M240.347 104.067C238.871 99.2675 236.943 94.619 234.589 90.184C222.447 67.6184 201.153 50.5939 177.862 40.522C159.37 32.537 136.503 28.3631 116.884 35.5558C106.963 39.1939 97.6219 46.1578 92.3042 55.4485C85.3738 67.5794 86.0267 82.584 80.5248 95.3343C76.0608 105.652 64.9678 111.851 56.2741 118.212C42.7092 128.1 29.3451 139.79 24.6411 156.513C18.3692 178.806 20.2273 205.344 32.9218 225.17C42.4078 239.962 58.6456 244.404 75.4024 244.7C91.2161 244.984 110.556 240.989 125.315 248.204C150.459 260.48 183.638 274.263 211.772 264.548C240.788 254.532 255 235.024 259.202 209.719C263.404 184.413 251.825 163.332 248.131 143.317C245.832 130.656 244.309 116.678 240.347 104.067Z" fill="white"/>
<path d="M28.7983 180.044C28.6532 178.432 28.6197 176.947 28.603 175.63C28.603 174.883 28.603 174.207 28.603 173.577C29.161 173.103 31.4878 171.178 32.1295 169.877C32.7712 168.577 33.2065 166.808 32.5257 165.447C32.3791 165.122 32.1662 164.832 31.9008 164.594C31.6353 164.357 31.3231 164.177 30.9842 164.067C30.6453 163.958 30.2872 163.92 29.9329 163.956C29.5785 163.993 29.2358 164.104 28.9266 164.281C27.1243 165.397 26.9736 169.252 27.4591 171.111C27.4981 171.272 28.4411 173.705 28.469 173.683L28.5081 173.655C28.4802 174.263 28.4523 174.916 28.4411 175.625C28.4411 176.942 28.4411 178.415 28.5416 180.055C28.5416 180.323 28.5806 180.613 28.603 180.887C28.8038 181.188 28.9154 181.383 28.9154 181.383C28.8931 180.931 28.8373 180.474 28.7983 180.044Z" fill="#BABABA"/>
<path d="M23.0007 175.954C20.579 176.35 20.2665 178.621 22.5264 180.072C24.4404 181.3 27.7102 181.383 28.6644 181.383C28.6644 181.216 28.6644 181.048 28.6254 180.887C27.7102 179.486 24.9872 175.625 23.0007 175.954Z" fill="#BABABA"/>
<path d="M71.1838 165.296C69.0467 165.23 66.7923 168.321 66.1618 170.118C66.106 170.274 65.5592 172.807 65.6038 172.802H65.6484C65.2857 173.287 64.9063 173.812 64.5324 174.397C63.7959 175.48 62.9756 176.708 62.1777 178.103L61.8987 178.588C61.8596 178.979 61.8261 179.213 61.8261 179.213L61.6364 179.057C60.9624 180.254 60.3497 181.485 59.8006 182.745C59.008 184.526 58.3768 186.375 57.9146 188.269C57.9146 188.269 57.9146 188.314 57.9146 188.336C57.8699 187.711 57.6802 185.965 57.6523 185.836C57.2338 183.962 55.3366 180.575 53.1883 180.346C52.8359 180.316 52.4813 180.362 52.148 180.48C51.8147 180.598 51.5104 180.786 51.2553 181.031C51.0003 181.276 50.8004 181.572 50.669 181.901C50.5376 182.229 50.4776 182.582 50.4932 182.935C50.4932 184.447 51.7319 185.87 52.8758 186.735C54.1704 187.717 57.5798 188.504 57.8476 188.565C57.4279 190.51 57.1372 192.48 56.9771 194.463C56.8767 195.618 56.8153 196.784 56.7651 197.962C56.7037 197.404 56.6535 196.935 56.6367 196.846C56.2182 194.976 54.321 191.589 52.1727 191.361C51.8206 191.331 51.4662 191.377 51.1331 191.495C50.8001 191.613 50.4961 191.801 50.2415 192.046C49.9869 192.291 49.7876 192.588 49.6568 192.916C49.526 193.244 49.4668 193.597 49.4832 193.95C49.4832 195.462 50.7219 196.879 51.8658 197.75C53.0097 198.62 55.9225 199.362 56.6925 199.541C56.6925 199.993 56.6591 200.439 56.6479 200.891C56.5865 203.051 56.5307 205.205 56.4191 207.319C56.3801 208.062 56.3131 208.793 56.2461 209.524C56.1959 209.044 56.1513 208.642 56.1345 208.581C55.7216 206.711 53.8188 203.324 51.6705 203.095C51.3182 203.065 50.9634 203.11 50.6299 203.228C50.2965 203.346 49.9921 203.533 49.7373 203.779C49.4825 204.024 49.2832 204.321 49.1527 204.65C49.0223 204.978 48.9637 205.331 48.981 205.685C48.981 207.197 50.2142 208.614 51.3581 209.485C52.502 210.355 55.1357 211.019 56.0453 211.242C55.9839 211.756 55.9225 212.269 55.85 212.771C56.1736 212.866 56.5028 212.944 56.8432 213.011C56.966 212.04 57.0608 211.052 57.1389 210.054C57.9313 210.277 60.7659 211.03 62.1609 210.824C63.5559 210.617 65.2969 209.964 66.0056 208.636C66.1804 208.327 66.2888 207.984 66.3238 207.63C66.3589 207.276 66.3197 206.918 66.209 206.58C66.0982 206.242 65.9182 205.931 65.6805 205.666C65.4427 205.401 65.1525 205.189 64.8282 205.043C62.8417 204.206 59.6165 206.265 58.3889 207.71C58.3163 207.799 57.5519 208.938 57.1445 209.568C57.1947 208.837 57.245 208.112 57.2673 207.375C57.3398 205.238 57.3454 203.073 57.3566 200.919C57.3566 200.255 57.3566 199.597 57.3566 198.938C57.6411 199.022 60.9891 199.987 62.5739 199.753C63.9856 199.547 65.7098 198.894 66.4185 197.571C66.594 197.261 66.7028 196.918 66.7379 196.563C66.773 196.209 66.7336 195.851 66.6222 195.513C66.5108 195.174 66.3299 194.863 66.0911 194.599C65.8523 194.334 65.5609 194.123 65.2355 193.978C63.2546 193.141 60.0294 195.194 58.8018 196.639C58.7125 196.751 57.6188 198.386 57.3621 198.816C57.3621 197.365 57.4179 195.92 57.5072 194.497C57.6221 192.575 57.8607 190.663 58.2215 188.772C58.3554 188.811 61.8485 189.832 63.4667 189.597C64.8784 189.391 66.6082 188.732 67.3113 187.41C67.4861 187.1 67.5945 186.757 67.6296 186.403C67.6646 186.049 67.6255 185.692 67.5147 185.354C67.4039 185.016 67.2239 184.704 66.9862 184.44C66.7485 184.175 66.4582 183.963 66.1339 183.817C64.153 182.98 60.9222 185.039 59.6946 186.484C59.5997 186.595 58.4279 188.359 58.2326 188.716C58.2326 188.604 58.2661 188.487 58.2884 188.381C58.7048 186.5 59.2893 184.661 60.035 182.885C60.4311 181.897 60.8664 180.982 61.3128 180.095C61.9433 180.351 64.8449 181.495 66.3348 181.445C67.8246 181.395 69.5544 180.937 70.4026 179.698C70.6115 179.41 70.7577 179.082 70.8317 178.734C70.9057 178.386 70.9059 178.026 70.8323 177.678C70.7587 177.33 70.6129 177.001 70.4043 176.713C70.1957 176.425 69.929 176.183 69.6214 176.005C67.7409 174.955 64.2981 176.641 62.9254 177.941C62.8529 178.008 62.1721 178.817 61.6811 179.408C61.8875 179.012 62.094 178.599 62.3004 178.225C63.0705 176.814 63.8628 175.569 64.5715 174.476C64.9788 173.856 65.3639 173.304 65.7266 172.802C66.4687 172.735 69.4763 172.417 70.7486 171.686C72.0208 170.955 73.3433 169.749 73.5386 168.254C73.5918 167.903 73.572 167.545 73.4805 167.202C73.3889 166.859 73.2276 166.539 73.0065 166.261C72.7855 165.984 72.5095 165.755 72.1959 165.589C71.8822 165.423 71.5377 165.323 71.1838 165.296Z" fill="#BABABA"/>
<path d="M41.8499 211.365C41.995 211.649 42.1345 211.923 42.274 212.224L43.2282 211.912C42.8655 211.192 42.4916 210.472 42.1122 209.763C42.8878 209.512 45.6443 208.58 46.6934 207.626C47.7424 206.672 48.8082 205.165 48.6631 203.664C48.6393 203.308 48.5419 202.961 48.3772 202.645C48.2125 202.328 47.9841 202.049 47.7062 201.825C47.4284 201.602 47.1072 201.438 46.7629 201.344C46.4186 201.251 46.0586 201.229 45.7057 201.282C43.6076 201.672 42.0787 205.188 41.8667 207.079C41.8667 207.202 41.8667 208.58 41.8667 209.311C41.4984 208.675 41.1413 208.034 40.7507 207.397C39.6347 205.556 38.4406 203.731 37.2576 201.907L36.1862 200.233C36.4652 200.149 39.763 199.117 40.9404 198.04C41.9894 197.091 43.0552 195.585 42.9101 194.084C42.8871 193.727 42.7903 193.38 42.6259 193.063C42.4614 192.746 42.2329 192.466 41.9549 192.242C41.6769 192.018 41.3554 191.855 41.0107 191.761C40.666 191.668 40.3058 191.648 39.9527 191.701C37.8547 192.091 36.3257 195.607 36.1137 197.499C36.1137 197.644 36.1137 199.625 36.1137 200.132C35.3269 198.894 34.5569 197.655 33.8482 196.405C32.8835 194.722 32.0261 192.979 31.2814 191.188C31.4098 191.148 34.8582 190.072 36.0635 188.983C37.1125 188.035 38.1783 186.528 38.0332 185.022C38.0094 184.666 37.9121 184.319 37.7473 184.003C37.5826 183.686 37.354 183.408 37.0761 183.184C36.7981 182.961 36.4768 182.798 36.1325 182.705C35.7882 182.612 35.4284 182.591 35.0758 182.645C32.9777 183.035 31.4488 186.551 31.2368 188.442C31.2368 188.593 31.2368 190.724 31.2368 191.115C31.1977 191.009 31.1419 190.903 31.1029 190.803C30.4095 188.993 29.8755 187.125 29.507 185.223C29.2894 184.173 29.1443 183.158 29.0215 182.165C29.6855 182.036 32.7099 181.395 33.9096 180.535C35.1093 179.676 36.2811 178.303 36.3034 176.819C36.3184 176.462 36.2592 176.106 36.1297 175.774C36.0001 175.441 35.8031 175.139 35.5509 174.886C35.2987 174.633 34.9969 174.436 34.6644 174.305C34.332 174.175 33.9762 174.115 33.6194 174.129C31.4879 174.286 29.5795 177.606 29.1554 179.464C29.1554 179.564 29.0104 180.619 28.9322 181.389H28.6588C28.7648 182.628 28.9155 183.934 29.161 185.295C29.4866 187.237 29.9852 189.145 30.6509 190.998C30.6568 191.02 30.6662 191.04 30.6788 191.059C30.2938 190.557 29.1778 189.19 29.0829 189.095C27.7046 187.75 24.2729 185.942 22.3869 186.924C22.0785 187.099 21.8106 187.336 21.6006 187.622C21.3906 187.907 21.2433 188.233 21.1685 188.58C21.0937 188.926 21.0929 189.284 21.1664 189.631C21.2398 189.977 21.3857 190.304 21.5945 190.59C22.4427 191.857 24.2339 192.382 25.6568 192.477C27.2638 192.594 30.5114 191.361 30.7681 191.277C31.4904 193.148 32.3367 194.97 33.3014 196.728C33.8594 197.761 34.4453 198.782 35.0535 199.797C34.7075 199.373 34.3951 198.994 34.3448 198.949C32.9722 197.599 29.5349 195.791 27.6488 196.773C27.3396 196.947 27.0709 197.185 26.8604 197.471C26.6498 197.757 26.5022 198.084 26.4274 198.431C26.3525 198.778 26.352 199.137 26.426 199.484C26.5 199.831 26.6467 200.158 26.8565 200.445C27.6991 201.711 29.4958 202.23 30.9187 202.331C32.3416 202.431 35.1539 201.438 35.8961 201.159C36.136 201.544 36.3648 201.935 36.6047 202.32C37.7207 204.172 38.8925 206.019 39.9527 207.861C40.3266 208.513 40.6781 209.166 41.0241 209.819C40.7172 209.44 40.4661 209.127 40.4159 209.083C39.0376 207.738 35.6003 205.93 33.7199 206.912C33.4111 207.086 33.1426 207.323 32.932 207.608C32.7215 207.893 32.5737 208.22 32.4983 208.566C32.4229 208.912 32.4217 209.271 32.4947 209.617C32.5677 209.964 32.7133 210.292 32.9219 210.578C33.7645 211.845 35.5613 212.369 36.9842 212.47C38.4071 212.57 40.9627 211.677 41.8499 211.365Z" fill="#BABABA"/>
<path d="M60.6323 171.245C58.5064 170.023 56.8268 171.591 57.6638 174.141C58.378 176.322 60.9058 178.482 61.62 179.051L61.8823 178.582C62.0608 176.886 62.3677 172.238 60.6323 171.245Z" fill="#BABABA"/>
<path d="M189.335 259.782C186.98 259.844 184.698 263.409 184.135 265.44C184.107 265.546 183.923 266.657 183.8 267.499C184.916 267.6 186.032 267.678 187.148 267.734C187.91 267.551 188.642 267.261 189.324 266.874C190.635 266.021 192.058 264.564 192.159 262.896C192.197 262.502 192.152 262.104 192.028 261.729C191.903 261.353 191.701 261.008 191.436 260.715C191.17 260.421 190.846 260.187 190.484 260.026C190.122 259.866 189.731 259.783 189.335 259.782Z" fill="#BABABA"/>
<path d="M169.013 228.222C166.301 228.222 165.564 230.655 167.78 232.63C169.649 234.304 173.203 234.968 174.241 235.135L174.291 234.577C173.538 232.876 171.239 228.188 169.013 228.222Z" fill="#BABABA"/>
<path d="M212.682 259.381C212.927 259.073 213.106 258.718 213.206 258.337C213.306 257.956 213.326 257.559 213.264 257.171C213.202 256.782 213.06 256.411 212.846 256.08C212.633 255.75 212.352 255.467 212.023 255.251C210.009 253.996 206.125 255.675 204.541 257.037C204.418 257.137 202.945 258.739 202.588 259.163C202.861 257.578 203.146 256.01 203.503 254.47C203.959 252.387 204.552 250.337 205.277 248.332C205.417 248.399 209.044 250.123 210.857 250.151C212.431 250.151 214.428 249.755 215.427 248.438C215.673 248.131 215.851 247.775 215.951 247.395C216.052 247.014 216.072 246.617 216.01 246.228C215.948 245.84 215.805 245.468 215.592 245.138C215.378 244.807 215.098 244.525 214.769 244.309C212.754 243.053 208.871 244.733 207.286 246.095C207.158 246.201 205.573 247.919 205.305 248.254C205.35 248.137 205.378 248.014 205.422 247.897C206.205 245.918 207.163 244.013 208.285 242.205C208.887 241.201 209.524 240.275 210.165 239.415C210.807 239.806 213.776 241.558 215.405 241.759C217.034 241.96 219.004 241.759 220.142 240.565C220.42 240.287 220.636 239.953 220.777 239.587C220.919 239.22 220.982 238.827 220.962 238.435C220.943 238.042 220.841 237.658 220.665 237.307C220.488 236.956 220.24 236.646 219.936 236.397C218.067 234.923 214.021 236.168 212.291 237.34C212.196 237.406 211.315 238.165 210.679 238.723C210.969 238.327 211.27 237.914 211.555 237.54C212.643 236.134 213.72 234.918 214.685 233.846C215.243 233.244 215.751 232.73 216.236 232.212C217.062 232.267 220.399 232.446 221.9 231.882C223.401 231.319 225.069 230.208 225.521 228.618C225.64 228.242 225.679 227.846 225.636 227.454C225.594 227.062 225.47 226.684 225.273 226.342C225.076 226.001 224.811 225.704 224.493 225.47C224.176 225.237 223.813 225.072 223.429 224.985C221.113 224.533 218.117 227.519 217.129 229.371C217.045 229.533 216.013 232.195 216.047 232.2H216.097C215.622 232.663 215.115 233.171 214.573 233.735C213.586 234.789 212.475 235.967 211.354 237.373L210.969 237.853C210.857 238.271 210.785 238.517 210.785 238.517C210.785 238.517 210.712 238.444 210.6 238.316C209.713 239.432 208.809 240.671 207.956 242.016C206.781 243.822 205.77 245.731 204.937 247.718C204.937 247.718 204.937 247.769 204.937 247.791C204.998 247.099 205.099 245.163 205.087 245.001C204.965 242.886 203.48 238.863 201.181 238.238C200.802 238.145 200.407 238.134 200.023 238.206C199.639 238.277 199.275 238.43 198.955 238.653C198.634 238.876 198.365 239.165 198.165 239.501C197.965 239.836 197.839 240.21 197.794 240.598C197.549 242.272 198.631 244.008 199.731 245.157C200.969 246.452 204.552 247.902 204.836 248.02C204.035 250.067 203.374 252.166 202.855 254.303C202.549 255.541 202.297 256.808 202.013 258.075C202.046 257.478 202.069 256.959 202.063 256.87C201.935 254.755 200.456 250.732 198.157 250.107C197.778 250.012 197.383 249.999 196.999 250.07C196.615 250.14 196.25 250.292 195.929 250.515C195.608 250.738 195.339 251.027 195.139 251.363C194.939 251.699 194.813 252.073 194.77 252.461C194.524 254.135 195.607 255.876 196.706 257.026C197.806 258.175 200.852 259.487 201.656 259.816L201.371 261.278C200.992 263.281 200.618 265.279 200.205 267.248L201.209 267.109C201.555 265.228 201.873 263.331 202.186 261.434C202.303 260.714 202.431 260 202.56 259.28C202.85 259.42 206.337 261.055 208.106 261.082C209.685 261.11 211.683 260.697 212.682 259.381Z" fill="#BABABA"/>
<path d="M210.885 229.622C208.775 227.92 206.677 229.338 207.141 232.262C207.542 234.773 209.931 237.563 210.6 238.31L210.968 237.847C211.482 236.034 212.598 231.012 210.885 229.622Z" fill="#BABABA"/>
<path d="M174.654 233.668C174.777 231.888 175 230.259 175.212 228.825C175.335 228.01 175.463 227.273 175.591 226.593C176.306 226.18 179.157 224.478 180.083 223.172C181.01 221.866 181.791 220.014 181.289 218.412C181.185 218.033 181.003 217.679 180.755 217.374C180.507 217.069 180.198 216.819 179.847 216.64C179.497 216.461 179.114 216.357 178.721 216.334C178.328 216.312 177.935 216.372 177.567 216.51C175.402 217.419 174.57 221.593 174.777 223.702C174.777 223.886 175.396 226.704 175.435 226.688L175.48 226.66C175.34 227.318 175.201 228.027 175.067 228.802C174.821 230.236 174.565 231.86 174.403 233.651C174.375 233.947 174.347 234.26 174.325 234.566C174.487 234.935 174.581 235.164 174.581 235.164C174.57 234.661 174.593 234.148 174.654 233.668Z" fill="#BABABA"/>
<path d="M175.324 263.839C174.855 263.997 174.441 264.285 174.129 264.669C173.818 265.053 173.623 265.518 173.566 266.01C176.451 266.568 179.336 267.031 182.215 267.338C180.932 265.608 177.533 263.103 175.324 263.839Z" fill="#BABABA"/>
<path d="M195.59 262.818C195.211 262.723 194.816 262.711 194.432 262.781C194.048 262.852 193.683 263.004 193.362 263.227C193.041 263.45 192.772 263.739 192.572 264.074C192.372 264.41 192.246 264.785 192.203 265.173C192.109 266.089 192.305 267.012 192.761 267.812C194.87 267.768 196.965 267.628 199.044 267.394C198.425 265.429 197.214 263.27 195.59 262.818Z" fill="#BABABA"/>
<path d="M182.862 265.608C181.964 263.41 180.982 261.205 180.016 259.007C179.72 258.337 179.43 257.662 179.14 256.987C179.458 256.942 183.236 256.39 184.72 255.425C186.031 254.571 187.454 253.114 187.555 251.446C187.592 251.055 187.548 250.661 187.425 250.289C187.302 249.916 187.103 249.573 186.841 249.281C186.579 248.989 186.259 248.754 185.902 248.592C185.544 248.43 185.157 248.343 184.765 248.338C182.41 248.394 180.128 251.965 179.564 253.991C179.52 254.147 179.174 256.312 179.118 256.864C178.476 255.38 177.851 253.896 177.299 252.4C176.536 250.397 175.905 248.347 175.407 246.262C175.552 246.262 179.497 245.704 180.987 244.7C182.293 243.846 183.721 242.384 183.822 240.721C183.859 240.33 183.814 239.936 183.692 239.563C183.569 239.19 183.37 238.846 183.108 238.554C182.846 238.262 182.526 238.026 182.169 237.864C181.812 237.701 181.424 237.614 181.032 237.608C178.677 237.669 176.395 241.235 175.831 243.266C175.787 243.422 175.418 245.754 175.385 246.179C175.357 246.061 175.312 245.939 175.284 245.816C174.845 243.714 174.591 241.578 174.525 239.432C174.47 238.249 174.486 237.117 174.525 236.017C175.268 235.989 178.677 235.816 180.139 235.085C181.601 234.354 183.113 233.093 183.392 231.453C183.471 231.067 183.469 230.668 183.387 230.283C183.304 229.898 183.142 229.534 182.911 229.214C182.68 228.895 182.386 228.627 182.046 228.427C181.706 228.228 181.328 228.101 180.937 228.055C178.588 227.848 175.915 231.14 175.139 233.077C175.1 233.183 174.788 234.315 174.581 235.141L174.274 235.097C174.174 236.464 174.113 237.887 174.146 239.427C174.165 241.601 174.376 243.768 174.777 245.905V245.978C174.447 245.364 173.465 243.679 173.376 243.556C172.109 241.848 168.678 239.276 166.451 240.018C166.085 240.157 165.753 240.371 165.475 240.646C165.198 240.922 164.981 241.253 164.839 241.617C164.698 241.982 164.635 242.372 164.654 242.763C164.673 243.154 164.774 243.536 164.95 243.885C165.648 245.408 167.517 246.296 169.051 246.675C170.781 247.077 174.537 246.312 174.838 246.251C175.3 248.418 175.904 250.552 176.646 252.64C177.076 253.862 177.544 255.079 178.024 256.289C177.723 255.771 177.466 255.302 177.405 255.246C176.138 253.533 172.706 250.966 170.48 251.708C170.115 251.847 169.783 252.061 169.506 252.336C169.229 252.611 169.013 252.941 168.871 253.305C168.73 253.669 168.666 254.059 168.685 254.449C168.703 254.839 168.804 255.221 168.979 255.57C169.676 257.099 171.54 257.98 173.08 258.36C174.62 258.739 177.851 258.136 178.699 257.969C178.889 258.432 179.073 258.895 179.257 259.358C180.178 261.59 181.11 263.795 181.952 265.993C182.131 266.462 182.298 266.931 182.466 267.394L183.582 267.505C183.353 266.858 183.119 266.233 182.862 265.608Z" fill="#BABABA"/>
<path d="M181.428 90.1838L181.796 92.3879L184.251 92.6055L184.988 90.5186C185.793 90.4463 186.586 90.2738 187.348 90.0052L188.9 91.5788L191.031 90.3456L190.445 88.2252C191.062 87.7002 191.611 87.1004 192.08 86.4396L194.245 86.8413L195.289 84.6093L193.587 83.2088C193.789 82.4249 193.892 81.6188 193.894 80.8094L195.914 79.8942L195.484 77.4669L193.252 77.294C192.969 76.5474 192.594 75.8389 192.136 75.1847L193.285 73.2429L191.544 71.5019L189.591 72.6626C188.466 71.9025 187.195 71.3838 185.858 71.1392L185.3 68.9072H182.834L182.276 71.1392C181.506 71.2816 180.757 71.5177 180.044 71.8423L178.286 70.319L176.266 71.7307L177.098 73.9069C176.555 74.4598 176.081 75.0762 175.686 75.7427L173.365 75.5028L172.522 77.8185L174.442 79.1186C174.352 79.6589 174.307 80.2058 174.308 80.7536C174.308 80.9879 174.308 81.2167 174.308 81.4455L172.293 82.5615L172.93 84.9386L175.212 84.9107C175.551 85.6215 175.972 86.2901 176.467 86.9027L175.48 88.9562L177.366 90.5353L179.229 89.2798M189.463 77.7738C190.124 78.9488 190.379 80.3086 190.19 81.6431C190 82.9777 189.377 84.2128 188.416 85.1579C187.455 86.103 186.21 86.7055 184.872 86.8723C183.535 87.0391 182.179 86.761 181.016 86.0809C179.852 85.4009 178.944 84.3566 178.433 83.1094C177.922 81.8623 177.835 80.4815 178.187 79.1802C178.539 77.879 179.309 76.7297 180.379 75.9098C181.448 75.0898 182.758 74.6448 184.106 74.6435C184.401 74.6429 184.696 74.6653 184.988 74.7104M187.069 75.4024C187.541 75.6635 187.977 75.9862 188.364 76.3621" stroke="black" stroke-miterlimit="10"/>
<path d="M187.242 215.868L187.611 218.072L190.066 218.29L190.802 216.203C191.607 216.13 192.4 215.958 193.163 215.689L194.714 217.263L196.846 216.03L196.288 213.909C196.905 213.384 197.454 212.784 197.922 212.124L200.088 212.525L201.131 210.293L199.457 208.893C199.659 208.109 199.762 207.303 199.764 206.493L201.784 205.578L201.354 203.151L199.122 202.978C198.841 202.23 198.466 201.522 198.006 200.869L199.156 198.927L197.415 197.186L195.462 198.347C194.336 197.587 193.065 197.068 191.729 196.823L191.171 194.591H188.704L188.146 196.823C187.376 196.966 186.627 197.202 185.914 197.526L184.14 196.02L182.12 197.432L182.951 199.608C182.409 200.161 181.935 200.777 181.54 201.444L179.218 201.204L178.376 203.519L180.295 204.819C180.205 205.36 180.16 205.907 180.161 206.454C180.161 206.689 180.161 206.918 180.161 207.146L178.147 208.262L178.783 210.639L181.065 210.611C181.405 211.322 181.826 211.991 182.321 212.604L181.35 214.668L183.236 216.247L185.066 214.942M195.3 203.436C195.96 204.611 196.216 205.97 196.026 207.305C195.837 208.639 195.214 209.875 194.253 210.82C193.292 211.765 192.046 212.367 190.709 212.534C189.371 212.701 188.016 212.423 186.852 211.743C185.689 211.063 184.781 210.018 184.27 208.771C183.759 207.524 183.672 206.143 184.024 204.842C184.375 203.541 185.146 202.391 186.215 201.572C187.285 200.752 188.595 200.307 189.943 200.305C190.238 200.305 190.533 200.327 190.825 200.372M192.906 201.064C193.378 201.325 193.814 201.648 194.201 202.024" stroke="black" stroke-miterlimit="10"/>
<path d="M199.206 63.7457L199.529 64.5938C199.368 64.7557 199.211 64.9286 199.061 65.1016M198.24 66.2176C198.196 66.2846 198.157 66.3515 198.118 66.4185L195.796 66.1841L194.954 68.4943L196.873 69.7944C196.782 70.3346 196.735 70.8814 196.734 71.4293C196.734 71.6637 196.734 71.8925 196.734 72.1213L194.714 73.2373L195.356 75.6143H197.638C197.974 76.3288 198.395 76.9996 198.893 77.612L197.906 79.6598L199.792 81.2446L201.622 79.9333C202.314 80.3321 203.052 80.645 203.82 80.8651L204.189 83.0692L206.638 83.2813L207.38 81.1943C208.185 81.1239 208.978 80.9533 209.741 80.6866L211.286 82.2546L213.418 81.027L212.86 78.9066C213.476 78.3802 214.025 77.7806 214.495 77.121L216.66 77.5171L217.703 75.2851L216.002 73.879C216.201 73.0964 216.304 72.2926 216.308 71.4851L218.328 70.5644L217.899 68.1427L215.667 67.9697C215.382 67.222 215.008 66.5117 214.551 65.8549L215.7 63.9187L213.959 62.1777L212.006 63.3383C210.883 62.5736 209.611 62.0545 208.273 61.815L207.715 59.583H205.254L204.696 61.815C203.927 61.96 203.178 62.196 202.464 62.5181L200.701 60.9947L198.687 62.4065L198.943 63.0761M212.531 72.696C212.448 73.1005 212.322 73.4951 212.157 73.8734M211.694 74.7383C210.901 75.9843 209.685 76.9025 208.27 77.3246C206.855 77.7467 205.335 77.6444 203.989 77.0363C202.643 76.4283 201.561 75.3553 200.942 74.0143C200.324 72.6733 200.209 71.1541 200.62 69.7355C201.031 68.3168 201.939 67.0939 203.179 66.291C204.418 65.488 205.906 65.159 207.368 65.3642C208.831 65.5694 210.171 66.2951 211.141 67.4081C212.112 68.5211 212.649 69.9469 212.654 71.4238C212.654 71.5726 212.654 71.7232 212.654 71.8757" stroke="black" stroke-miterlimit="10"/>
<path d="M52.0222 139.662L50.1753 143.495L53.7018 146.453L57.1168 144.003C58.412 144.752 59.7953 145.337 61.2348 145.744L61.9156 149.862L66.5023 150.264L67.8806 146.358C69.3862 146.224 70.869 145.901 72.2944 145.398L75.1848 148.339L79.1689 146.04L78.0529 142.078C79.2077 141.092 80.2365 139.967 81.1164 138.73L85.1619 139.472L87.1093 135.304L83.9343 132.681C84.3044 131.222 84.4918 129.723 84.4923 128.217L88.2643 126.499L87.4664 121.968L83.3037 121.644C82.7717 120.25 82.0728 118.925 81.2224 117.699L83.3651 114.072L80.112 110.819L76.4571 112.989C74.3578 111.561 71.9812 110.592 69.4821 110.144L68.4274 105.97H63.8239L62.7637 110.166C61.338 110.439 59.9499 110.881 58.629 111.483L55.3368 108.637L51.5703 111.276L53.1215 115.344C52.1095 116.378 51.2236 117.528 50.4822 118.77L46.1465 118.324L44.5729 122.648L48.1609 125.081C47.9904 126.092 47.9045 127.114 47.9042 128.139C47.9042 128.574 47.9209 129.004 47.9544 129.428L44.1768 131.537L45.3709 136.001L49.6396 135.951C50.1115 136.957 50.6717 137.918 51.3136 138.825M62.3285 117.331C62.8298 117.155 63.3425 117.013 63.863 116.907M66.6976 116.683C69.5087 116.813 72.1741 117.971 74.1875 119.937C76.2009 121.903 77.4219 124.54 77.6186 127.347C77.8153 130.154 76.9739 132.936 75.2543 135.163C73.5347 137.391 71.0567 138.909 68.2912 139.429C65.5257 139.95 62.6654 139.436 60.2538 137.986C57.8422 136.536 56.0473 134.25 55.2102 131.564C54.3731 128.877 54.5521 125.976 55.7132 123.413C56.8743 120.85 58.9366 118.802 61.5082 117.66" stroke="black" stroke-miterlimit="10"/>
<path d="M110.975 127.274L106.411 124.328" stroke="#263238" stroke-width="3" stroke-linecap="round" stroke-linejoin="round"/>
<path d="M118.904 118.413L117.721 117.426" stroke="#263238" stroke-width="3" stroke-linecap="round" stroke-linejoin="round"/>
<path d="M105.579 144.394L96.1323 142.028" stroke="#263238" stroke-width="3" stroke-linecap="round" stroke-linejoin="round"/>
<path d="M156.636 202.459C156.567 202.459 156.497 202.449 156.43 202.431C156.212 202.375 156.026 202.234 155.911 202.041C155.621 201.533 155.464 201.26 157.819 198.559C152.741 201.667 152.2 201.539 151.904 201.466C151.673 201.398 151.474 201.247 151.346 201.042C150.878 200.233 150.788 200.071 160.185 192.382C158.679 193.358 157.111 194.407 155.721 195.334C147.452 200.852 144.879 202.42 143.741 202.158C143.603 202.127 143.473 202.067 143.359 201.984C143.244 201.9 143.149 201.794 143.077 201.673C142.575 200.802 142.575 200.802 153.679 192.778L155.877 191.193C154.594 192.047 153.316 192.918 152.144 193.716C143.406 199.658 139.428 202.225 137.938 201.89C137.782 201.855 137.636 201.787 137.509 201.691C137.382 201.595 137.277 201.472 137.201 201.332C136.643 200.389 136.531 200.177 152.68 189.207L131.443 201.483C131.253 201.588 131.03 201.615 130.822 201.558C130.613 201.5 130.435 201.363 130.327 201.176C129.953 200.529 130.243 199.736 131.777 198.386C129.333 199.792 127.916 200.356 127.218 200.194C127.073 200.16 126.936 200.098 126.816 200.011C126.695 199.924 126.593 199.813 126.515 199.686C126.052 198.883 126.231 198.14 132.14 194.167C126.047 197.979 123.798 199.1 122.922 198.894C122.792 198.863 122.669 198.806 122.562 198.727C122.454 198.647 122.364 198.546 122.297 198.431C121.89 197.733 122.269 197.482 123.67 196.556L126.755 194.541L131.476 191.489C126.275 194.19 125.494 194.006 125.059 193.9C124.912 193.866 124.774 193.804 124.652 193.715C124.53 193.627 124.428 193.515 124.35 193.386C124.247 193.197 124.221 192.976 124.277 192.768C124.334 192.56 124.468 192.382 124.652 192.27C141.029 182.561 166.312 166.987 172.405 161.837C166.329 164.599 148.16 175.882 137.809 182.327C124.479 190.613 124.417 190.596 123.859 190.451C123.744 190.425 123.635 190.376 123.539 190.307C123.443 190.238 123.362 190.151 123.301 190.049C122.849 189.268 122.872 188.766 128.206 185.463C125.751 186.618 124.133 187.137 123.418 186.969C123.262 186.933 123.115 186.864 122.986 186.768C122.858 186.672 122.75 186.551 122.671 186.411C122.564 186.226 122.533 186.006 122.584 185.798C122.635 185.591 122.764 185.41 122.944 185.295C139.472 174.766 162.724 159.856 172.21 153.556C169.571 154.901 166.027 156.904 162.088 159.265C158.902 161.312 155.124 163.695 150.654 166.474C144.751 170.151 138.78 173.795 133.808 176.808C121.8 184.386 121.655 184.352 121.069 184.207C120.954 184.179 120.845 184.129 120.75 184.059C120.654 183.989 120.573 183.901 120.511 183.8C120.408 183.611 120.382 183.389 120.438 183.181C120.494 182.974 120.629 182.795 120.813 182.684C124.428 180.536 128.418 178.142 132.559 175.631L134.735 174.258C126.063 179.219 121.27 181.389 119.858 181.043C119.695 181.011 119.541 180.945 119.405 180.849C119.269 180.753 119.156 180.629 119.072 180.485C118.553 179.593 119.289 178.454 125.405 174.459C121.46 176.864 119.897 177.578 119.233 177.416C119.107 177.388 118.987 177.333 118.883 177.257C118.778 177.18 118.69 177.082 118.625 176.97C118.274 176.362 117.989 175.854 122.074 172.891C119.875 174.007 118.486 174.459 117.822 174.297C117.671 174.264 117.529 174.201 117.404 174.111C117.279 174.02 117.175 173.905 117.096 173.773C117.04 173.677 117.004 173.57 116.989 173.46C116.975 173.35 116.983 173.238 117.013 173.131C117.071 172.917 117.212 172.735 117.403 172.623C135.51 162.328 162.93 146.023 171.278 139.444C162.121 144.5 136.877 159.32 119.261 169.766C119.166 169.822 119.061 169.859 118.952 169.874C118.842 169.889 118.731 169.883 118.624 169.855C118.517 169.827 118.417 169.778 118.329 169.711C118.241 169.644 118.167 169.56 118.112 169.465C118.026 169.312 117.973 169.143 117.955 168.968C117.936 168.793 117.954 168.617 118.006 168.449C118.317 167.742 118.786 167.115 119.379 166.619C118.078 167.149 117.208 167.344 116.711 167.222C116.557 167.184 116.412 167.115 116.285 167.019C116.158 166.923 116.053 166.802 115.975 166.664C115.473 165.799 116.432 165.129 117.883 164.119C118.999 163.366 120.578 162.322 122.788 160.939C126.912 158.361 132.57 154.946 138.563 151.335C145.298 147.273 153.299 142.446 159.655 138.451C146.057 146.263 124.641 158.774 114.357 164.789C114.162 164.899 113.931 164.929 113.715 164.872C113.608 164.844 113.509 164.795 113.422 164.728C113.334 164.661 113.261 164.578 113.207 164.482C112.777 163.734 112.649 163.517 120.043 158.863C117.147 160.453 115.316 161.139 114.384 160.922C114.208 160.885 114.042 160.812 113.896 160.707C113.75 160.603 113.627 160.469 113.536 160.314C112.978 159.354 112.978 159.354 126.404 151.559C132.614 147.954 140.025 143.646 146.843 139.506C152.568 135.7 157.049 132.81 160.447 130.801C162.23 129.615 163.922 128.299 165.508 126.862C158.539 129.992 131.018 146.631 113.614 157.457C113.426 157.575 113.199 157.614 112.983 157.565C112.766 157.516 112.578 157.382 112.459 157.194C112.341 157.006 112.302 156.779 112.351 156.563C112.4 156.346 112.534 156.158 112.722 156.039L118.123 152.602C113.659 154.895 111.985 155.28 111.299 155.107C111.143 155.071 110.997 155.003 110.869 154.907C110.741 154.811 110.635 154.689 110.557 154.549C110.448 154.364 110.416 154.144 110.467 153.936C110.518 153.728 110.648 153.548 110.83 153.433L122.721 145.811C113.001 151.302 112.214 151.107 111.734 150.984C111.606 150.954 111.486 150.899 111.381 150.821C111.275 150.743 111.186 150.645 111.12 150.532C111.016 150.345 110.987 150.125 111.04 149.917C111.093 149.71 111.223 149.53 111.405 149.416C123.937 141.665 141.743 130.444 152.139 123.408C143.741 128.245 131.493 135.432 122.877 140.499L113.274 146.079C111.142 147.323 110.11 147.932 109.558 148.211L109.413 148.3C109.028 148.484 108.933 148.456 108.771 148.411C108.613 148.369 108.472 148.282 108.363 148.161C108.254 148.039 108.184 147.889 108.159 147.728C108.135 147.566 108.158 147.402 108.226 147.253C108.294 147.105 108.404 146.98 108.542 146.894C121.834 138.674 141.464 126.287 150.258 120.193C145.577 122.905 138.585 127.364 132.96 130.963C117.191 141.007 112.398 143.897 111.009 143.551C110.876 143.52 110.752 143.462 110.643 143.382C110.533 143.301 110.442 143.199 110.372 143.083C110.026 142.474 109.775 142.045 115.015 138.267C113.587 138.898 112.621 139.138 112.058 139.004C111.898 138.967 111.748 138.899 111.616 138.803C111.483 138.707 111.372 138.586 111.288 138.446C111.184 138.259 111.155 138.04 111.207 137.833C111.259 137.625 111.387 137.446 111.567 137.33C121.862 130.851 137.508 120.696 142.887 116.494C138.178 118.798 127.899 125.422 121.851 129.294C111.968 135.594 111.6 135.75 110.969 135.594C110.854 135.567 110.745 135.517 110.649 135.447C110.553 135.377 110.472 135.289 110.411 135.187C109.965 134.422 109.575 133.742 119.25 127.09C118.056 127.849 116.834 128.636 115.584 129.439C115.481 129.523 115.36 129.582 115.23 129.612C115.101 129.642 114.966 129.642 114.836 129.612C114.726 129.586 114.623 129.537 114.533 129.469C114.442 129.401 114.367 129.315 114.312 129.216C113.715 128.184 114.574 127.297 121.365 122.091C121.24 122.064 121.123 122.012 121.02 121.937C120.917 121.862 120.831 121.766 120.768 121.655C120.664 121.463 120.64 121.238 120.699 121.028C120.758 120.817 120.897 120.638 121.086 120.528C121.243 120.442 121.422 120.405 121.599 120.422C122.482 119.91 123.337 119.351 124.161 118.748C126.884 116.834 127.654 116.377 128.318 116.516C128.447 116.545 128.57 116.599 128.677 116.677C128.785 116.755 128.875 116.854 128.943 116.968C129.423 117.805 129.049 118.307 124.479 121.845C125.751 121.058 127.062 120.244 128.385 119.44C141.286 111.55 142.284 111.784 142.893 111.929C143.027 111.958 143.153 112.015 143.263 112.096C143.374 112.176 143.466 112.279 143.534 112.398C143.639 112.585 143.669 112.804 143.617 113.012C143.565 113.219 143.436 113.399 143.255 113.514C136.961 117.42 130.421 121.65 124.936 125.305C137.67 117.175 143.791 113.587 145.515 114.022C145.665 114.055 145.806 114.119 145.93 114.209C146.054 114.3 146.158 114.414 146.235 114.546C146.765 115.467 147.15 116.137 129.534 127.732L127.001 129.406C130.55 127.174 134.143 124.83 137.045 122.933C148.344 115.601 150.175 114.524 151.028 114.725C151.145 114.756 151.255 114.809 151.351 114.883C151.447 114.957 151.527 115.049 151.586 115.155C151.693 115.34 151.724 115.56 151.673 115.768C151.622 115.975 151.493 116.156 151.313 116.271C140.387 123.235 124.428 133.63 116.538 139.216C120.779 136.716 126.789 132.882 132.023 129.546C148.612 118.944 154.025 115.735 155.554 116.103C155.69 116.136 155.819 116.196 155.932 116.279C156.045 116.363 156.141 116.468 156.212 116.589C156.619 117.297 156.915 117.8 147.212 124.278C160.81 116.388 161.072 116.466 161.502 116.566C161.611 116.595 161.714 116.644 161.804 116.712C161.894 116.78 161.97 116.865 162.027 116.963C162.584 117.928 162.981 118.637 137.324 135.031C135.46 136.225 133.591 137.413 131.744 138.574C141.899 132.57 154.002 125.182 163.17 119.457C163.266 119.398 163.373 119.359 163.484 119.342C163.595 119.325 163.708 119.33 163.818 119.356C164.037 119.412 164.226 119.553 164.342 119.747C164.738 120.439 164.152 120.863 163.533 121.287C163.154 121.549 162.596 121.929 161.859 122.403C160.509 123.301 158.511 124.635 155.933 126.309C151.592 129.138 145.526 133.061 137.904 137.971C130.561 142.698 123.162 147.457 118.09 150.699C124.791 147.156 137.826 139.5 162.936 123.458C166.552 121.153 166.552 121.153 166.92 121.226C167.031 121.253 167.134 121.302 167.225 121.37C167.317 121.438 167.393 121.524 167.45 121.622C167.657 121.979 167.774 122.18 167.104 122.777C166.212 123.558 163.991 125.009 158.924 128.301C166.1 124.367 166.77 124.529 167.205 124.641C167.331 124.669 167.451 124.724 167.555 124.8C167.66 124.877 167.748 124.975 167.813 125.087C168.114 125.612 168.187 126.242 167.071 127.492C167.511 127.355 167.977 127.32 168.432 127.392C168.614 127.43 168.786 127.505 168.937 127.614C169.088 127.722 169.215 127.862 169.308 128.022C169.866 128.982 170.145 129.473 153.567 139.93C171.122 129.763 171.295 129.808 171.713 129.919C171.821 129.947 171.922 129.995 172.01 130.062C172.098 130.13 172.172 130.214 172.227 130.31C172.785 131.236 171.78 132.168 169.381 133.92C167.835 135.036 165.654 136.509 162.73 138.384C172.478 132.296 174.922 131.035 175.792 131.247C175.916 131.277 176.031 131.332 176.133 131.408C176.235 131.483 176.32 131.579 176.384 131.688C176.44 131.783 176.476 131.888 176.49 131.998C176.505 132.107 176.497 132.218 176.468 132.324C176.439 132.432 176.39 132.533 176.322 132.621C176.254 132.709 176.168 132.783 176.071 132.838C170.38 136.063 164.593 139.4 159.002 142.692L153.21 146.352C141.821 153.562 133.513 158.746 127.682 162.138C125.835 163.405 124.255 164.532 122.989 165.486C128.178 162.417 137.017 157.2 145.867 152.038C173.767 135.711 174.191 135.829 174.721 135.968C174.83 135.996 174.933 136.046 175.023 136.114C175.113 136.182 175.189 136.267 175.246 136.364C175.326 136.507 175.377 136.665 175.395 136.828C175.414 136.991 175.399 137.156 175.352 137.313C175.187 137.853 174.871 138.335 174.442 138.702C176.356 137.748 177.556 137.358 178.147 137.497C178.291 137.53 178.427 137.592 178.546 137.679C178.665 137.767 178.764 137.877 178.839 138.005C179.285 138.775 178.66 139.193 177.282 140.108C176.451 140.666 175.223 141.442 173.521 142.502L173.192 142.709C175.792 141.464 177.617 140.878 178.532 141.102C178.719 141.14 178.896 141.217 179.051 141.328C179.207 141.438 179.338 141.58 179.436 141.743C180.206 143.077 179.436 143.925 152.211 160.029C140.778 166.842 125.673 175.77 121.555 179.118C123.826 178.32 129.484 175.586 143.546 167.077C155.007 160.141 167.629 152.044 173.678 148.155C177.879 145.46 177.874 145.465 178.248 145.555C178.47 145.611 178.66 145.754 178.778 145.951C179.118 146.542 179.464 147.139 174.872 150.56C175.52 150.267 176.233 150.144 176.942 150.203C177.098 150.24 177.245 150.308 177.374 150.404C177.502 150.5 177.61 150.621 177.69 150.761C178.181 151.614 178.181 151.614 169.152 157.529C164.688 160.442 158.494 164.465 150.682 169.487C143.149 174.331 135.555 179.191 130.354 182.511C140.889 176.864 160.631 164.342 169.414 158.774C177.226 153.835 177.226 153.835 177.651 153.941C177.76 153.969 177.862 154.019 177.952 154.087C178.042 154.155 178.118 154.24 178.175 154.337C178.772 155.375 177.823 156.848 174.152 159.577C174.259 159.562 174.368 159.562 174.475 159.577C174.612 159.61 174.741 159.67 174.854 159.753C174.967 159.836 175.062 159.942 175.134 160.063C175.72 161.078 176.384 162.228 151.62 177.734C158.74 173.349 166.128 168.684 172.093 164.817C172.188 164.754 172.295 164.712 172.408 164.693C172.52 164.674 172.635 164.677 172.746 164.704C172.856 164.731 172.961 164.78 173.052 164.848C173.143 164.916 173.219 165.002 173.276 165.101C173.683 165.816 173.12 166.217 172.16 166.887C171.602 167.283 170.759 167.863 169.654 168.6C168.55 169.336 167.177 170.274 165.52 171.345C167.83 170.173 169.258 169.699 169.984 169.878C170.141 169.913 170.289 169.981 170.419 170.077C170.549 170.173 170.657 170.295 170.737 170.436C171.206 171.245 171.1 171.552 165.453 175.201C166.641 174.693 167.484 174.509 168.025 174.643C168.193 174.679 168.352 174.75 168.491 174.851C168.631 174.952 168.747 175.08 168.834 175.229C169.493 176.345 168.996 176.869 153.874 186.026C149.544 188.649 144.092 191.947 139.679 194.792L169.37 177.656C169.465 177.6 169.57 177.564 169.679 177.549C169.789 177.535 169.9 177.543 170.006 177.573C170.219 177.629 170.401 177.768 170.514 177.958C170.927 178.677 170.341 179.107 169.37 179.821C168.784 180.251 167.925 180.859 166.742 181.674C164.538 183.203 161.474 185.273 158.232 187.471C154.454 190.027 149.7 193.247 145.805 195.953C147.597 194.77 149.46 193.503 151.118 192.376C159.75 186.506 163.394 184.157 164.817 184.469C164.966 184.502 165.106 184.565 165.23 184.654C165.354 184.744 165.458 184.857 165.536 184.988C166.022 185.837 166.044 185.876 156.145 193.046C163.327 188.269 165.676 186.908 166.747 187.148C166.885 187.179 167.015 187.239 167.129 187.322C167.244 187.405 167.339 187.511 167.411 187.633C167.802 188.314 167.802 188.314 162.808 192.393C161.301 193.621 159.209 195.328 157.323 196.907C158.851 195.964 160.537 194.893 162.138 193.855C162.234 193.793 162.341 193.751 162.453 193.731C162.565 193.712 162.68 193.716 162.791 193.742C162.902 193.769 163.006 193.818 163.097 193.886C163.188 193.955 163.264 194.041 163.321 194.14C163.634 194.698 163.516 194.809 162.372 196.037C161.441 197.036 160.643 197.912 159.967 198.659C165.034 195.641 165.218 195.691 165.575 195.78C165.684 195.808 165.786 195.858 165.875 195.926C165.964 195.994 166.039 196.079 166.094 196.176C166.15 196.271 166.186 196.377 166.201 196.486C166.216 196.595 166.209 196.706 166.18 196.812C166.152 196.919 166.102 197.019 166.035 197.106C165.967 197.193 165.883 197.266 165.787 197.32C165.707 197.369 165.618 197.403 165.525 197.421C164.783 197.755 160.659 200.183 157.027 202.381C156.904 202.437 156.771 202.464 156.636 202.459ZM164.688 196.974C164.777 197.124 164.909 197.243 165.068 197.315C164.911 197.241 164.779 197.122 164.688 196.974ZM144.087 188.454C139.266 191.461 134.523 194.474 131.431 196.623C134.796 194.619 139.684 191.394 144.087 188.454ZM164.839 173.594C159.365 176.63 150.509 182.332 143.78 186.679C146.257 185.133 149.081 183.387 152.289 181.412C156.709 178.694 161.469 175.77 164.839 173.594ZM164.482 177.5C161.508 179.085 156.993 181.964 152.591 184.838L153.054 184.559C157.166 182.059 161.63 179.353 164.482 177.489V177.5ZM137.045 164.967C133.362 167.272 130.014 169.443 127.224 171.306C130.114 169.459 133.541 167.244 137.045 164.967ZM176.769 143.021C175.151 143.579 171.719 145.142 164.459 149.5C157.2 153.858 148.428 159.588 140.616 164.666C137.207 166.898 134.339 168.739 131.917 170.291C136.615 167.4 142.926 163.623 151.358 158.634C161.619 152.546 173.092 145.761 176.769 143.021ZM171.529 159.393L170.346 160.146C166.44 162.627 162.741 164.962 159.248 167.149C163.907 164.348 168.31 161.608 171.529 159.393ZM134.523 155.682C129.406 158.774 124.434 161.82 121.131 163.902C122.805 163.048 124.819 161.904 127.096 160.554C129.333 159.03 131.839 157.384 134.523 155.682ZM147.625 140.94C145.482 142.368 143.373 143.786 141.397 145.108C137.491 147.742 134.02 150.041 131.013 152.016L134.087 150.119C145.387 143.155 161.703 133.089 166.502 129.439C164.727 130.233 163.006 131.142 161.351 132.163C159.443 133.496 157.016 135.098 153.941 137.039C151.938 138.295 149.812 139.601 147.625 140.929V140.94Z" fill="#7ED321"/>
<g opacity="0.4">
<path d="M156.636 202.459C156.567 202.459 156.497 202.449 156.43 202.431C156.212 202.375 156.026 202.234 155.911 202.041C155.621 201.533 155.464 201.26 157.819 198.559C152.741 201.667 152.2 201.539 151.904 201.466C151.673 201.398 151.474 201.247 151.346 201.042C150.878 200.233 150.788 200.071 160.185 192.382C158.679 193.358 157.111 194.407 155.721 195.334C147.452 200.852 144.879 202.42 143.741 202.158C143.603 202.127 143.473 202.067 143.359 201.984C143.244 201.9 143.149 201.794 143.077 201.673C142.575 200.802 142.575 200.802 153.679 192.778L155.877 191.193C154.594 192.047 153.316 192.918 152.144 193.716C143.406 199.658 139.428 202.225 137.938 201.89C137.782 201.855 137.636 201.787 137.509 201.691C137.382 201.595 137.277 201.472 137.201 201.332C136.643 200.389 136.531 200.177 152.68 189.207L131.443 201.483C131.253 201.588 131.03 201.615 130.822 201.558C130.613 201.5 130.435 201.363 130.327 201.176C129.953 200.529 130.243 199.736 131.777 198.386C129.333 199.792 127.916 200.356 127.218 200.194C127.073 200.16 126.936 200.098 126.816 200.011C126.695 199.924 126.593 199.813 126.515 199.686C126.052 198.883 126.231 198.14 132.14 194.167C126.047 197.979 123.798 199.1 122.922 198.894C122.792 198.863 122.669 198.806 122.562 198.727C122.454 198.647 122.364 198.546 122.297 198.431C121.89 197.733 122.269 197.482 123.67 196.556L126.755 194.541L131.476 191.489C126.275 194.19 125.494 194.006 125.059 193.9C124.912 193.866 124.774 193.804 124.652 193.715C124.53 193.627 124.428 193.515 124.35 193.386C124.247 193.197 124.221 192.976 124.277 192.768C124.334 192.56 124.468 192.382 124.652 192.27C141.029 182.561 166.312 166.987 172.405 161.837C166.329 164.599 148.16 175.882 137.809 182.327C124.479 190.613 124.417 190.596 123.859 190.451C123.744 190.425 123.635 190.376 123.539 190.307C123.443 190.238 123.362 190.151 123.301 190.049C122.849 189.268 122.872 188.766 128.206 185.463C125.751 186.618 124.133 187.137 123.418 186.969C123.262 186.933 123.115 186.864 122.986 186.768C122.858 186.672 122.75 186.551 122.671 186.411C122.564 186.226 122.533 186.006 122.584 185.798C122.635 185.591 122.764 185.41 122.944 185.295C139.472 174.766 162.724 159.856 172.21 153.556C169.571 154.901 166.027 156.904 162.088 159.265C158.902 161.312 155.124 163.695 150.654 166.474C144.751 170.151 138.78 173.795 133.808 176.808C121.8 184.386 121.655 184.352 121.069 184.207C120.954 184.179 120.845 184.129 120.75 184.059C120.654 183.989 120.573 183.901 120.511 183.8C120.408 183.611 120.382 183.389 120.438 183.181C120.494 182.974 120.629 182.795 120.813 182.684C124.428 180.536 128.418 178.142 132.559 175.631L134.735 174.258C126.063 179.219 121.27 181.389 119.858 181.043C119.695 181.011 119.541 180.945 119.405 180.849C119.269 180.753 119.156 180.629 119.072 180.485C118.553 179.593 119.289 178.454 125.405 174.459C121.46 176.864 119.897 177.578 119.233 177.416C119.107 177.388 118.987 177.333 118.883 177.257C118.778 177.18 118.69 177.082 118.625 176.97C118.274 176.362 117.989 175.854 122.074 172.891C119.875 174.007 118.486 174.459 117.822 174.297C117.671 174.264 117.529 174.201 117.404 174.111C117.279 174.02 117.175 173.905 117.096 173.773C117.04 173.677 117.004 173.57 116.989 173.46C116.975 173.35 116.983 173.238 117.013 173.131C117.071 172.917 117.212 172.735 117.403 172.623C135.51 162.328 162.93 146.023 171.278 139.444C162.121 144.5 136.877 159.32 119.261 169.766C119.166 169.822 119.061 169.859 118.952 169.874C118.842 169.889 118.731 169.883 118.624 169.855C118.517 169.827 118.417 169.778 118.329 169.711C118.241 169.644 118.167 169.56 118.112 169.465C118.026 169.312 117.973 169.143 117.955 168.968C117.936 168.793 117.954 168.617 118.006 168.449C118.317 167.742 118.786 167.115 119.379 166.619C118.078 167.149 117.208 167.344 116.711 167.222C116.557 167.184 116.412 167.115 116.285 167.019C116.158 166.923 116.053 166.802 115.975 166.664C115.473 165.799 116.432 165.129 117.883 164.119C118.999 163.366 120.578 162.322 122.788 160.939C126.912 158.361 132.57 154.946 138.563 151.335C145.298 147.273 153.299 142.446 159.655 138.451C146.057 146.263 124.641 158.774 114.357 164.789C114.162 164.899 113.931 164.929 113.715 164.872C113.608 164.844 113.509 164.795 113.422 164.728C113.334 164.661 113.261 164.578 113.207 164.482C112.777 163.734 112.649 163.517 120.043 158.863C117.147 160.453 115.316 161.139 114.384 160.922C114.208 160.885 114.042 160.812 113.896 160.707C113.75 160.603 113.627 160.469 113.536 160.314C112.978 159.354 112.978 159.354 126.404 151.559C132.614 147.954 140.025 143.646 146.843 139.506C152.568 135.7 157.049 132.81 160.447 130.801C162.23 129.615 163.922 128.299 165.508 126.862C158.539 129.992 131.018 146.631 113.614 157.457C113.426 157.575 113.199 157.614 112.983 157.565C112.766 157.516 112.578 157.382 112.459 157.194C112.341 157.006 112.302 156.779 112.351 156.563C112.4 156.346 112.534 156.158 112.722 156.039L118.123 152.602C113.659 154.895 111.985 155.28 111.299 155.107C111.143 155.071 110.997 155.003 110.869 154.907C110.741 154.811 110.635 154.689 110.557 154.549C110.448 154.364 110.416 154.144 110.467 153.936C110.518 153.728 110.648 153.548 110.83 153.433L122.721 145.811C113.001 151.302 112.214 151.107 111.734 150.984C111.606 150.954 111.486 150.899 111.381 150.821C111.275 150.743 111.186 150.645 111.12 150.532C111.016 150.345 110.987 150.125 111.04 149.917C111.093 149.71 111.223 149.53 111.405 149.416C123.937 141.665 141.743 130.444 152.139 123.408C143.741 128.245 131.493 135.432 122.877 140.499L113.274 146.079C111.142 147.323 110.11 147.932 109.558 148.211L109.413 148.3C109.028 148.484 108.933 148.456 108.771 148.411C108.613 148.369 108.472 148.282 108.363 148.161C108.254 148.039 108.184 147.889 108.159 147.728C108.135 147.566 108.158 147.402 108.226 147.253C108.294 147.105 108.404 146.98 108.542 146.894C121.834 138.674 141.464 126.287 150.258 120.193C145.577 122.905 138.585 127.364 132.96 130.963C117.191 141.007 112.398 143.897 111.009 143.551C110.876 143.52 110.752 143.462 110.643 143.382C110.533 143.301 110.442 143.199 110.372 143.083C110.026 142.474 109.775 142.045 115.015 138.267C113.587 138.898 112.621 139.138 112.058 139.004C111.898 138.967 111.748 138.899 111.616 138.803C111.483 138.707 111.372 138.586 111.288 138.446C111.184 138.259 111.155 138.04 111.207 137.833C111.259 137.625 111.387 137.446 111.567 137.33C121.862 130.851 137.508 120.696 142.887 116.494C138.178 118.798 127.899 125.422 121.851 129.294C111.968 135.594 111.6 135.75 110.969 135.594C110.854 135.567 110.745 135.517 110.649 135.447C110.553 135.377 110.472 135.289 110.411 135.187C109.965 134.422 109.575 133.742 119.25 127.09C118.056 127.849 116.834 128.636 115.584 129.439C115.481 129.523 115.36 129.582 115.23 129.612C115.101 129.642 114.966 129.642 114.836 129.612C114.726 129.586 114.623 129.537 114.533 129.469C114.442 129.401 114.367 129.315 114.312 129.216C113.715 128.184 114.574 127.297 121.365 122.091C121.24 122.064 121.123 122.012 121.02 121.937C120.917 121.862 120.831 121.766 120.768 121.655C120.664 121.463 120.64 121.238 120.699 121.028C120.758 120.817 120.897 120.638 121.086 120.528C121.243 120.442 121.422 120.405 121.599 120.422C122.482 119.91 123.337 119.351 124.161 118.748C126.884 116.834 127.654 116.377 128.318 116.516C128.447 116.545 128.57 116.599 128.677 116.677C128.785 116.755 128.875 116.854 128.943 116.968C129.423 117.805 129.049 118.307 124.479 121.845C125.751 121.058 127.062 120.244 128.385 119.44C141.286 111.55 142.284 111.784 142.893 111.929C143.027 111.958 143.153 112.015 143.263 112.096C143.374 112.176 143.466 112.279 143.534 112.398C143.639 112.585 143.669 112.804 143.617 113.012C143.565 113.219 143.436 113.399 143.255 113.514C136.961 117.42 130.421 121.65 124.936 125.305C137.67 117.175 143.791 113.587 145.515 114.022C145.665 114.055 145.806 114.119 145.93 114.209C146.054 114.3 146.158 114.414 146.235 114.546C146.765 115.467 147.15 116.137 129.534 127.732L127.001 129.406C130.55 127.174 134.143 124.83 137.045 122.933C148.344 115.601 150.175 114.524 151.028 114.725C151.145 114.756 151.255 114.809 151.351 114.883C151.447 114.957 151.527 115.049 151.586 115.155C151.693 115.34 151.724 115.56 151.673 115.768C151.622 115.975 151.493 116.156 151.313 116.271C140.387 123.235 124.428 133.63 116.538 139.216C120.779 136.716 126.789 132.882 132.023 129.546C148.612 118.944 154.025 115.735 155.554 116.103C155.69 116.136 155.819 116.196 155.932 116.279C156.045 116.363 156.141 116.468 156.212 116.589C156.619 117.297 156.915 117.8 147.212 124.278C160.81 116.388 161.072 116.466 161.502 116.566C161.611 116.595 161.714 116.644 161.804 116.712C161.894 116.78 161.97 116.865 162.027 116.963C162.584 117.928 162.981 118.637 137.324 135.031C135.46 136.225 133.591 137.413 131.744 138.574C141.899 132.57 154.002 125.182 163.17 119.457C163.266 119.398 163.373 119.359 163.484 119.342C163.595 119.325 163.708 119.33 163.818 119.356C164.037 119.412 164.226 119.553 164.342 119.747C164.738 120.439 164.152 120.863 163.533 121.287C163.154 121.549 162.596 121.929 161.859 122.403C160.509 123.301 158.511 124.635 155.933 126.309C151.592 129.138 145.526 133.061 137.904 137.971C130.561 142.698 123.162 147.457 118.09 150.699C124.791 147.156 137.826 139.5 162.936 123.458C166.552 121.153 166.552 121.153 166.92 121.226C167.031 121.253 167.134 121.302 167.225 121.37C167.317 121.438 167.393 121.524 167.45 121.622C167.657 121.979 167.774 122.18 167.104 122.777C166.212 123.558 163.991 125.009 158.924 128.301C166.1 124.367 166.77 124.529 167.205 124.641C167.331 124.669 167.451 124.724 167.555 124.8C167.66 124.877 167.748 124.975 167.813 125.087C168.114 125.612 168.187 126.242 167.071 127.492C167.511 127.355 167.977 127.32 168.432 127.392C168.614 127.43 168.786 127.505 168.937 127.614C169.088 127.722 169.215 127.862 169.308 128.022C169.866 128.982 170.145 129.473 153.567 139.93C171.122 129.763 171.295 129.808 171.713 129.919C171.821 129.947 171.922 129.995 172.01 130.062C172.098 130.13 172.172 130.214 172.227 130.31C172.785 131.236 171.78 132.168 169.381 133.92C167.835 135.036 165.654 136.509 162.73 138.384C172.478 132.296 174.922 131.035 175.792 131.247C175.916 131.277 176.031 131.332 176.133 131.408C176.235 131.483 176.32 131.579 176.384 131.688C176.44 131.783 176.476 131.888 176.49 131.998C176.505 132.107 176.497 132.218 176.468 132.324C176.439 132.432 176.39 132.533 176.322 132.621C176.254 132.709 176.168 132.783 176.071 132.838C170.38 136.063 164.593 139.4 159.002 142.692L153.21 146.352C141.821 153.562 133.513 158.746 127.682 162.138C125.835 163.405 124.255 164.532 122.989 165.486C128.178 162.417 137.017 157.2 145.867 152.038C173.767 135.711 174.191 135.829 174.721 135.968C174.83 135.996 174.933 136.046 175.023 136.114C175.113 136.182 175.189 136.267 175.246 136.364C175.326 136.507 175.377 136.665 175.395 136.828C175.414 136.991 175.399 137.156 175.352 137.313C175.187 137.853 174.871 138.335 174.442 138.702C176.356 137.748 177.556 137.358 178.147 137.497C178.291 137.53 178.427 137.592 178.546 137.679C178.665 137.767 178.764 137.877 178.839 138.005C179.285 138.775 178.66 139.193 177.282 140.108C176.451 140.666 175.223 141.442 173.521 142.502L173.192 142.709C175.792 141.464 177.617 140.878 178.532 141.102C178.719 141.14 178.896 141.217 179.051 141.328C179.207 141.438 179.338 141.58 179.436 141.743C180.206 143.077 179.436 143.925 152.211 160.029C140.778 166.842 125.673 175.77 121.555 179.118C123.826 178.32 129.484 175.586 143.546 167.077C155.007 160.141 167.629 152.044 173.678 148.155C177.879 145.46 177.874 145.465 178.248 145.555C178.47 145.611 178.66 145.754 178.778 145.951C179.118 146.542 179.464 147.139 174.872 150.56C175.52 150.267 176.233 150.144 176.942 150.203C177.098 150.24 177.245 150.308 177.374 150.404C177.502 150.5 177.61 150.621 177.69 150.761C178.181 151.614 178.181 151.614 169.152 157.529C164.688 160.442 158.494 164.465 150.682 169.487C143.149 174.331 135.555 179.191 130.354 182.511C140.889 176.864 160.631 164.342 169.414 158.774C177.226 153.835 177.226 153.835 177.651 153.941C177.76 153.969 177.862 154.019 177.952 154.087C178.042 154.155 178.118 154.24 178.175 154.337C178.772 155.375 177.823 156.848 174.152 159.577C174.259 159.562 174.368 159.562 174.475 159.577C174.612 159.61 174.741 159.67 174.854 159.753C174.967 159.836 175.062 159.942 175.134 160.063C175.72 161.078 176.384 162.228 151.62 177.734C158.74 173.349 166.128 168.684 172.093 164.817C172.188 164.754 172.295 164.712 172.408 164.693C172.52 164.674 172.635 164.677 172.746 164.704C172.856 164.731 172.961 164.78 173.052 164.848C173.143 164.916 173.219 165.002 173.276 165.101C173.683 165.816 173.12 166.217 172.16 166.887C171.602 167.283 170.759 167.863 169.654 168.6C168.55 169.336 167.177 170.274 165.52 171.345C167.83 170.173 169.258 169.699 169.984 169.878C170.141 169.913 170.289 169.981 170.419 170.077C170.549 170.173 170.657 170.295 170.737 170.436C171.206 171.245 171.1 171.552 165.453 175.201C166.641 174.693 167.484 174.509 168.025 174.643C168.193 174.679 168.352 174.75 168.491 174.851C168.631 174.952 168.747 175.08 168.834 175.229C169.493 176.345 168.996 176.869 153.874 186.026C149.544 188.649 144.092 191.947 139.679 194.792L169.37 177.656C169.465 177.6 169.57 177.564 169.679 177.549C169.789 177.535 169.9 177.543 170.006 177.573C170.219 177.629 170.401 177.768 170.514 177.958C170.927 178.677 170.341 179.107 169.37 179.821C168.784 180.251 167.925 180.859 166.742 181.674C164.538 183.203 161.474 185.273 158.232 187.471C154.454 190.027 149.7 193.247 145.805 195.953C147.597 194.77 149.46 193.503 151.118 192.376C159.75 186.506 163.394 184.157 164.817 184.469C164.966 184.502 165.106 184.565 165.23 184.654C165.354 184.744 165.458 184.857 165.536 184.988C166.022 185.837 166.044 185.876 156.145 193.046C163.327 188.269 165.676 186.908 166.747 187.148C166.885 187.179 167.015 187.239 167.129 187.322C167.244 187.405 167.339 187.511 167.411 187.633C167.802 188.314 167.802 188.314 162.808 192.393C161.301 193.621 159.209 195.328 157.323 196.907C158.851 195.964 160.537 194.893 162.138 193.855C162.234 193.793 162.341 193.751 162.453 193.731C162.565 193.712 162.68 193.716 162.791 193.742C162.902 193.769 163.006 193.818 163.097 193.886C163.188 193.955 163.264 194.041 163.321 194.14C163.634 194.698 163.516 194.809 162.372 196.037C161.441 197.036 160.643 197.912 159.967 198.659C165.034 195.641 165.218 195.691 165.575 195.78C165.684 195.808 165.786 195.858 165.875 195.926C165.964 195.994 166.039 196.079 166.094 196.176C166.15 196.271 166.186 196.377 166.201 196.486C166.216 196.595 166.209 196.706 166.18 196.812C166.152 196.919 166.102 197.019 166.035 197.106C165.967 197.193 165.883 197.266 165.787 197.32C165.707 197.369 165.618 197.403 165.525 197.421C164.783 197.755 160.659 200.183 157.027 202.381C156.904 202.437 156.771 202.464 156.636 202.459ZM164.688 196.974C164.777 197.124 164.909 197.243 165.068 197.315C164.911 197.241 164.779 197.122 164.688 196.974ZM144.087 188.454C139.266 191.461 134.523 194.474 131.431 196.623C134.796 194.619 139.684 191.394 144.087 188.454ZM164.839 173.594C159.365 176.63 150.509 182.332 143.78 186.679C146.257 185.133 149.081 183.387 152.289 181.412C156.709 178.694 161.469 175.77 164.839 173.594ZM164.482 177.5C161.508 179.085 156.993 181.964 152.591 184.838L153.054 184.559C157.166 182.059 161.63 179.353 164.482 177.489V177.5ZM137.045 164.967C133.362 167.272 130.014 169.443 127.224 171.306C130.114 169.459 133.541 167.244 137.045 164.967ZM176.769 143.021C175.151 143.579 171.719 145.142 164.459 149.5C157.2 153.858 148.428 159.588 140.616 164.666C137.207 166.898 134.339 168.739 131.917 170.291C136.615 167.4 142.926 163.623 151.358 158.634C161.619 152.546 173.092 145.761 176.769 143.021ZM171.529 159.393L170.346 160.146C166.44 162.627 162.741 164.962 159.248 167.149C163.907 164.348 168.31 161.608 171.529 159.393ZM134.523 155.682C129.406 158.774 124.434 161.82 121.131 163.902C122.805 163.048 124.819 161.904 127.096 160.554C129.333 159.03 131.839 157.384 134.523 155.682ZM147.625 140.94C145.482 142.368 143.373 143.786 141.397 145.108C137.491 147.742 134.02 150.041 131.013 152.016L134.087 150.119C145.387 143.155 161.703 133.089 166.502 129.439C164.727 130.233 163.006 131.142 161.351 132.163C159.443 133.496 157.016 135.098 153.941 137.039C151.938 138.295 149.812 139.601 147.625 140.929V140.94Z" fill="white"/>
</g>
<path d="M144.784 113.023H144.41C124.177 113.397 108.927 128.876 108.927 147.92C108.918 153.608 110.306 159.21 112.967 164.236C114.083 166.887 116.784 173.376 119.457 181.769C121.934 189.514 123.229 197.309 123.229 198.509C123.229 198.62 123.229 198.737 123.229 198.866C123.218 199.216 123.277 199.565 123.403 199.892C123.529 200.218 123.72 200.517 123.963 200.769C124.207 201.02 124.498 201.221 124.821 201.358C125.143 201.495 125.49 201.566 125.84 201.566H162.077C162.427 201.566 162.774 201.495 163.096 201.358C163.419 201.221 163.71 201.02 163.954 200.769C164.197 200.517 164.388 200.218 164.514 199.892C164.64 199.565 164.699 199.216 164.688 198.866C164.688 198.737 164.688 198.62 164.688 198.509C164.688 197.331 165.983 189.536 168.455 181.769C171.133 173.399 173.806 166.887 174.944 164.236C177.727 158.971 179.117 153.082 178.981 147.128C178.845 141.174 177.189 135.354 174.169 130.222C171.149 125.089 166.866 120.814 161.728 117.804C156.589 114.793 150.766 113.148 144.812 113.023H144.784Z" stroke="#263238" stroke-width="2" stroke-linecap="round" stroke-linejoin="round"/>
<path d="M157.01 118.625C156 118.171 154.964 117.777 153.908 117.442" stroke="#263238" stroke-width="3" stroke-linecap="round" stroke-linejoin="round"/>
<path d="M168.639 127.486C168.639 127.486 165.793 122.967 159.538 119.892" stroke="#263238" stroke-width="3" stroke-linecap="round" stroke-linejoin="round"/>
<path d="M141.643 185.742V167.819C141.643 167.819 143.021 159.092 138.484 159.092C133.948 159.092 134.294 163.634 139.528 168.516C144.762 173.399 152.797 168.868 153.846 165.029C154.895 161.19 152.1 159.449 150.353 162.585C148.607 165.721 150.353 201.338 150.353 201.338" stroke="#263238" stroke-width="3" stroke-linecap="round" stroke-linejoin="round"/>
<path d="M131.939 103.956L133.87 110.032" stroke="#263238" stroke-width="3" stroke-linecap="round" stroke-linejoin="round"/>
<path d="M179.246 117.208L172.891 122.18" stroke="#263238" stroke-width="3" stroke-linecap="round" stroke-linejoin="round"/>
<path d="M155.682 99.5195L153.288 110.032" stroke="#263238" stroke-width="3" stroke-linecap="round" stroke-linejoin="round"/>
<path d="M163.087 204.178H124.813C124.323 204.178 123.926 204.575 123.926 205.065V205.506C123.926 205.996 124.323 206.393 124.813 206.393H163.087C163.577 206.393 163.974 205.996 163.974 205.506V205.065C163.974 204.575 163.577 204.178 163.087 204.178Z" fill="#263238" stroke="#263238" stroke-linecap="round" stroke-linejoin="round"/>
<path d="M163.087 209.167H124.813C124.323 209.167 123.926 209.564 123.926 210.054V210.495C123.926 210.985 124.323 211.382 124.813 211.382H163.087C163.577 211.382 163.974 210.985 163.974 210.495V210.054C163.974 209.564 163.577 209.167 163.087 209.167Z" fill="#263238" stroke="#263238" stroke-linecap="round" stroke-linejoin="round"/>
<path d="M163.087 214.155H124.813C124.323 214.155 123.926 214.552 123.926 215.042V215.483C123.926 215.973 124.323 216.371 124.813 216.371H163.087C163.577 216.371 163.974 215.973 163.974 215.483V215.042C163.974 214.552 163.577 214.155 163.087 214.155Z" fill="#263238" stroke="#263238" stroke-linecap="round" stroke-linejoin="round"/>
<path d="M145.125 219.026H125.472L131.13 226.838C131.615 227.509 132.253 228.055 132.99 228.432C133.727 228.808 134.543 229.004 135.371 229.003H152.669C153.499 229.003 154.316 228.805 155.054 228.427C155.793 228.048 156.43 227.5 156.915 226.827L162.529 219.054L145.125 219.026Z" fill="#263238" stroke="#263238" stroke-linecap="round" stroke-linejoin="round"/>
<path d="M187.315 135.594C187.315 135.594 183.744 139.5 180.82 141.442C177.896 143.384 175.859 145.967 178.543 147.29C180.156 148.082 182.449 146.966 182.449 146.966C182.449 146.966 178.872 147.937 178.225 151.19C177.578 154.443 184.698 153.126 184.698 153.126C184.698 153.126 179.503 156.698 181.127 157.998C182.751 159.298 185.998 158.321 187.622 158.321C189.246 158.321 197.37 153.126 199.34 153.126C201.31 153.126 205.188 157.351 205.188 160.598C205.188 163.846 210.366 163.522 211.03 153.45C211.694 143.378 209.083 134.936 204.859 132.335C200.634 129.735 187.315 135.594 187.315 135.594Z" fill="white" stroke="#263238" stroke-miterlimit="10" stroke-linecap="round"/>
<path d="M185.368 146.626L198.33 141.782C198.33 141.782 204.022 140.549 208.106 147.278" stroke="#263238" stroke-miterlimit="10" stroke-linecap="round"/>
<path d="M187.639 150.526L199.357 148.579C199.357 148.579 204.557 148.255 207.805 154.426" stroke="#263238" stroke-miterlimit="10" stroke-linecap="round"/>
<path d="M201.935 158.321L193.163 160.274L198.358 181.06C198.358 181.06 202.911 190.155 204.206 194.056C205.5 197.956 218.826 210.924 218.826 210.924L234.416 195.981C234.416 195.981 227.274 187.538 226.95 185.585C226.626 183.632 225.321 160.899 225.321 157.652C225.321 154.404 218.826 146.603 218.826 146.603C218.826 146.603 216.158 142.781 214.858 136.286C213.558 129.791 207.604 127.118 204.345 127.442C201.087 127.765 192.187 128.742 188.615 131.348C185.044 133.953 181.791 137.195 185.044 138.172C190.44 139.79 199.268 132.592 203.525 137.569C205.478 139.84 207.783 149.845 208.106 151.168C208.106 151.168 206.483 157.339 201.935 158.31" fill="white"/>
<path d="M201.935 158.321L193.163 160.274L198.358 181.06C198.358 181.06 202.911 190.155 204.206 194.056C205.5 197.956 218.826 210.924 218.826 210.924L234.416 195.981C234.416 195.981 227.274 187.538 226.95 185.585C226.626 183.632 225.321 160.899 225.321 157.652C225.321 154.404 218.826 146.603 218.826 146.603C218.826 146.603 216.158 142.781 214.858 136.286C213.558 129.791 207.604 127.118 204.345 127.442C201.087 127.765 192.187 128.742 188.615 131.348C185.044 133.953 181.791 137.195 185.044 138.172C190.44 139.79 199.268 132.592 203.525 137.569C205.478 139.84 207.783 149.845 208.106 151.168C208.106 151.168 206.483 157.339 201.935 158.31" stroke="#263238" stroke-miterlimit="10" stroke-linecap="round"/>
<path d="M169.225 128.128C169.324 128.024 169.458 127.959 169.601 127.944C169.744 127.93 169.888 127.968 170.006 128.05L171.334 128.971C171.465 129.063 171.555 129.203 171.583 129.361C171.611 129.519 171.576 129.681 171.485 129.813C171.394 129.944 171.254 130.033 171.097 130.061C170.94 130.09 170.779 130.055 170.648 129.964L169.32 129.038C169.189 128.946 169.1 128.807 169.072 128.65C169.043 128.493 169.078 128.332 169.169 128.201C169.184 128.174 169.203 128.15 169.225 128.128Z" fill="#263238" stroke="#263238" stroke-miterlimit="10" stroke-linecap="round"/>
<path d="M170.748 129.2C170.973 128.959 171.278 128.807 171.606 128.773C171.934 128.739 172.264 128.825 172.534 129.015L176.696 131.158L217.564 158.043C217.913 158.285 218.21 158.593 218.439 158.95C218.668 159.307 218.825 159.706 218.9 160.124C218.975 160.541 218.967 160.97 218.877 161.384C218.787 161.799 218.615 162.192 218.373 162.54C218.131 162.888 217.823 163.186 217.466 163.415C217.108 163.644 216.71 163.801 216.292 163.876C215.874 163.951 215.446 163.943 215.032 163.853C214.617 163.762 214.224 163.591 213.876 163.349L174.213 134.088L170.971 131.298C170.822 131.194 170.695 131.063 170.597 130.91C170.499 130.758 170.432 130.588 170.4 130.41C170.368 130.231 170.371 130.048 170.41 129.871C170.449 129.694 170.522 129.527 170.625 129.378C170.66 129.315 170.701 129.255 170.748 129.2Z" fill="#92E3A9" stroke="#263238" stroke-miterlimit="10" stroke-linecap="round"/>
<path d="M217.57 158.042L205.774 150.286C204.864 150.55 204.061 151.097 203.482 151.847C202.903 152.597 202.578 153.513 202.554 154.46C202.555 154.647 202.57 154.833 202.599 155.018L213.882 163.343C214.585 163.832 215.454 164.022 216.298 163.87C217.141 163.719 217.89 163.238 218.379 162.534C218.868 161.831 219.058 160.961 218.906 160.118C218.754 159.274 218.274 158.526 217.57 158.037V158.042Z" fill="#263238" stroke="#263238" stroke-miterlimit="10" stroke-linecap="round"/>
<path d="M204.228 194.056C200.657 188.861 196.109 175.541 194.184 172.941C192.259 170.341 187.008 164.571 185.061 158.746C183.113 152.92 181.835 148.255 181.835 143.378C181.835 138.501 186.026 137.664 189.274 142.865C192.521 148.066 196.416 156.05 196.416 156.05C196.416 156.05 199.016 159.298 204.228 158.322" fill="white"/>
<path d="M204.228 194.056C200.657 188.861 196.109 175.541 194.184 172.941C192.259 170.341 187.008 164.571 185.061 158.746C183.113 152.92 181.835 148.255 181.835 143.378C181.835 138.501 186.026 137.664 189.274 142.865C192.521 148.066 196.416 156.05 196.416 156.05C196.416 156.05 199.016 159.298 204.228 158.322" stroke="#263238" stroke-miterlimit="10" stroke-linecap="round"/>
<path d="M185.865 141.347L186.981 143.518C186.981 143.518 186.735 143.518 185 144.505C183.964 145.096 183.095 145.938 182.472 146.955C182.472 146.955 180.798 142.279 182.277 140.817C182.636 140.438 183.111 140.188 183.627 140.108C184.082 140.061 184.541 140.154 184.941 140.375C185.341 140.597 185.663 140.936 185.865 141.347Z" fill="white" stroke="#263238" stroke-miterlimit="10" stroke-linecap="round"/>
<path d="M231.012 189.363C231.012 189.363 222.413 191.907 217.949 196.371C214.993 199.384 212.226 202.576 209.663 205.93L217.631 215.17C217.631 215.17 224.327 207.52 228.791 204.01C231.832 201.675 235.025 199.546 238.35 197.638L231.012 189.363Z" fill="white" stroke="#263238" stroke-miterlimit="10" stroke-linecap="round"/>
<path d="M238.997 256.591L213.826 216.125C213.826 216.125 220.198 206.566 225.616 201.79C231.034 197.013 238.043 195.735 238.043 195.735L269.514 225.94" fill="#263238"/>
<path d="M238.997 256.591L213.826 216.125C213.826 216.125 220.198 206.566 225.616 201.79C231.034 197.013 238.043 195.735 238.043 195.735L269.514 225.94" stroke="#263238" stroke-miterlimit="10" stroke-linecap="round"/>
<path d="M190.501 153.166L191.059 153.11" stroke="#263238" stroke-miterlimit="10" stroke-linecap="round"/>
<path d="M185.641 155.866C185.641 155.866 185.937 154.086 189.514 153.338" stroke="#263238" stroke-miterlimit="10" stroke-linecap="round"/>
<path d="M189.525 154.611C189.525 154.611 189.274 155.364 186.769 156.369" stroke="#263238" stroke-miterlimit="10" stroke-linecap="round"/>
<path d="M189.424 152.228C188.171 152.425 186.979 152.908 185.942 153.64" stroke="#263238" stroke-miterlimit="10" stroke-linecap="round"/>
<path d="M110.908 96.7293C110.908 96.7293 116.176 97.159 119.512 98.2694C122.849 99.3798 126.13 99.3854 125.522 96.4726C125.159 94.7149 122.872 93.5934 122.872 93.5934C122.872 93.5934 125.835 95.8254 128.798 94.3355C131.761 92.8456 126.348 88.0134 126.348 88.0134C126.348 88.0134 132.363 89.9217 132.391 87.8404C132.419 85.759 129.657 83.7949 128.658 82.5115C127.659 81.2281 118.575 78.0084 117.375 76.4739C116.176 74.9394 117.119 69.2646 119.685 67.2669C122.252 65.2693 118.804 61.38 110.484 67.0381C102.164 72.6963 97.092 79.9447 97.5998 84.8941C98.1076 89.8436 110.908 96.7293 110.908 96.7293Z" fill="white" stroke="#263238" stroke-miterlimit="10" stroke-linecap="round"/>
<path d="M120.824 91.5119L109.039 84.2579C109.039 84.2579 104.575 80.5249 107.365 73.1704" stroke="#263238" stroke-miterlimit="10" stroke-linecap="round"/>
<path d="M122.504 87.2991L113.788 79.2639C113.788 79.2639 110.339 75.3579 113.23 69.0078" stroke="#263238" stroke-miterlimit="10" stroke-linecap="round"/>
<path d="M119.886 71.2286L126.806 76.9593L140.058 60.0909C140.058 60.0909 148.596 56.2575 150.844 52.8369C153.093 49.4164 155.007 30.8908 155.007 30.8908L133.585 27.8999C133.585 27.8999 131.404 38.7474 130.076 40.215C128.747 41.6825 107.577 51.1685 105.016 53.1661C102.455 55.1638 100.284 65.0739 100.284 65.0739C99.1418 69.103 97.6481 73.0241 95.8199 76.7919C90.9374 86.6796 91.8079 85.9207 94.0566 88.2867C96.3053 90.6526 101.779 95.4625 106.026 96.6901C110.272 97.9177 115.551 102.304 114.368 96.9412C113.151 91.4449 101.232 89.1292 102.544 82.7234C103.141 79.7883 109.642 71.8145 110.467 70.7599C110.467 70.7599 116.332 68.2545 119.898 71.2453" fill="white"/>
<path d="M119.886 71.2286L126.806 76.9593L140.058 60.0909C140.058 60.0909 148.596 56.2575 150.844 52.8369C153.093 49.4164 155.007 30.8908 155.007 30.8908L133.585 27.8999C133.585 27.8999 131.404 38.7474 130.076 40.215C128.747 41.6825 107.577 51.1685 105.016 53.1661C102.455 55.1638 100.284 65.0739 100.284 65.0739C99.1418 69.103 97.6481 73.0241 95.8199 76.7919C90.9374 86.6796 91.8079 85.9207 94.0566 88.2867C96.3053 90.6526 101.779 95.4625 106.026 96.6901C110.272 97.9177 115.551 102.304 114.368 96.9412C113.151 91.4449 101.232 89.1292 102.544 82.7234C103.141 79.7883 109.642 71.8145 110.467 70.7599C110.467 70.7599 116.332 68.2545 119.898 71.2453" stroke="#263238" stroke-miterlimit="10" stroke-linecap="round"/>
<path d="M116.131 115.59C115.986 115.58 115.85 115.518 115.748 115.415C115.645 115.313 115.583 115.177 115.573 115.032L115.489 113.414C115.478 113.331 115.484 113.248 115.507 113.168C115.53 113.088 115.569 113.013 115.622 112.949C115.675 112.885 115.74 112.833 115.815 112.795C115.889 112.758 115.97 112.736 116.053 112.731C116.136 112.727 116.219 112.739 116.297 112.768C116.375 112.797 116.446 112.842 116.506 112.9C116.565 112.958 116.612 113.027 116.644 113.104C116.676 113.181 116.691 113.264 116.689 113.347L116.778 114.965C116.788 115.123 116.734 115.278 116.63 115.397C116.525 115.517 116.378 115.59 116.22 115.601L116.131 115.59Z" fill="#263238" stroke="#263238" stroke-miterlimit="10" stroke-linecap="round"/>
<path d="M116.064 113.721C115.735 113.691 115.428 113.544 115.2 113.306C114.971 113.068 114.836 112.756 114.82 112.426L113.96 107.823L110.094 59.059C110.048 58.2028 110.344 57.3636 110.917 56.7257C111.49 56.0879 112.292 55.7038 113.149 55.658C114.005 55.6121 114.844 55.9082 115.482 56.4811C116.12 57.054 116.504 57.8569 116.55 58.713L117.799 107.99L117.565 112.281C117.575 112.461 117.549 112.642 117.489 112.812C117.429 112.982 117.336 113.139 117.215 113.273C117.094 113.408 116.948 113.517 116.785 113.594C116.622 113.672 116.445 113.717 116.265 113.726C116.198 113.73 116.131 113.728 116.064 113.721Z" fill="#92E3A9" stroke="#263238" stroke-miterlimit="10" stroke-linecap="round"/>
<path d="M110.066 59.0586L111.182 73.1314C111.947 73.6913 112.87 73.9932 113.818 73.9932C114.766 73.9932 115.69 73.6913 116.455 73.1314C116.603 73.0152 116.743 72.8884 116.873 72.7519L116.522 58.735C116.476 57.8789 116.092 57.076 115.454 56.5031C114.816 55.9301 113.977 55.6341 113.121 55.6799C112.265 55.7258 111.462 56.1099 110.889 56.7477C110.316 57.3855 110.02 58.2248 110.066 59.0809V59.0586Z" fill="#263238" stroke="#263238" stroke-miterlimit="10" stroke-linecap="round"/>
<path d="M150.816 52.8149C148.986 58.8469 140.906 67.1388 139.5 70.0627C136.347 76.6875 132.699 83.065 128.586 89.1407C127.196 91.2221 125.695 91.5178 124.78 92.2655C123.441 93.3815 122.755 94.5254 120.467 96.2999C116.622 99.2908 113.386 96.5063 115.495 90.7534C117.604 85.0004 121.477 77.0042 121.477 77.0042C121.477 77.0042 122.448 72.9587 118.491 69.4545" fill="white"/>
<path d="M150.816 52.8149C148.986 58.8469 140.906 67.1388 139.5 70.0627C136.347 76.6875 132.699 83.065 128.586 89.1407C127.196 91.2221 125.695 91.5178 124.78 92.2655C123.441 93.3815 122.755 94.5254 120.467 96.2999C116.622 99.2908 113.386 96.5063 115.495 90.7534C117.604 85.0004 121.477 77.0042 121.477 77.0042C121.477 77.0042 122.448 72.9587 118.491 69.4545" stroke="#263238" stroke-miterlimit="10" stroke-linecap="round"/>
<path d="M116.343 94.3353L117.392 92.1479C117.392 92.1479 117.543 92.3433 119.39 93.1021C120.49 93.5569 121.688 93.7258 122.872 93.5932C122.872 93.5932 120.21 97.7893 118.129 97.5271C117.61 97.4778 117.122 97.2558 116.745 96.8965C116.419 96.5646 116.206 96.1394 116.134 95.6802C116.062 95.2211 116.135 94.7509 116.343 94.3353Z" fill="white" stroke="#263238" stroke-miterlimit="10" stroke-linecap="round"/>
<path d="M131.777 10.4179L127.341 39.2274C127.341 39.2274 132.693 43.9314 139.801 45.198C146.91 46.4647 159.889 48.3842 159.889 48.3842L171.25 10.4067" fill="#263238"/>
<path d="M131.777 10.4179L127.341 39.2274C127.341 39.2274 132.693 43.9314 139.801 45.198C146.91 46.4647 159.889 48.3842 159.889 48.3842L171.25 10.4067" stroke="#263238" stroke-miterlimit="10" stroke-linecap="round"/>
<path d="M157.602 41.9449C157.602 42.3786 157.473 42.8026 157.232 43.1632C156.991 43.5239 156.649 43.8049 156.248 43.9709C155.847 44.1369 155.406 44.1803 154.981 44.0957C154.556 44.0111 154.165 43.8022 153.858 43.4955C153.551 43.1888 153.343 42.7981 153.258 42.3727C153.173 41.9473 153.217 41.5064 153.383 41.1057C153.549 40.705 153.83 40.3625 154.19 40.1215C154.551 39.8806 154.975 39.752 155.409 39.752C155.99 39.752 156.548 39.983 156.959 40.3943C157.371 40.8055 157.602 41.3633 157.602 41.9449Z" fill="white" stroke="#263238" stroke-width="2" stroke-linecap="round" stroke-linejoin="round"/>
<path d="M121.203 87.2212L120.83 86.8418" stroke="#263238" stroke-miterlimit="10" stroke-linecap="round"/>
<path d="M126.314 89.4029C126.314 89.4029 124.73 90.2622 121.945 87.9019" stroke="#263238" stroke-miterlimit="10" stroke-linecap="round"/>
<path d="M122.938 87.1039C122.938 87.1039 123.686 86.8417 126.019 88.2199" stroke="#263238" stroke-miterlimit="10" stroke-linecap="round"/>
<path d="M121.125 88.6553C122.05 89.5205 123.161 90.1619 124.373 90.5302" stroke="#263238" stroke-miterlimit="10" stroke-linecap="round"/>
<path d="M122.727 182.561C122.727 182.561 123.234 187.822 124.401 191.143C125.567 194.463 125.634 197.744 122.693 197.18C120.93 196.84 119.775 194.574 119.775 194.574C119.775 194.574 122.046 197.504 120.606 200.483C119.167 203.463 114.245 198.129 114.245 198.129C114.245 198.129 116.243 204.11 114.167 204.172C112.091 204.233 110.077 201.499 108.782 200.523C107.488 199.546 104.129 190.479 102.572 189.329C101.015 188.18 95.3624 189.178 93.4094 191.773C91.4564 194.368 87.4946 190.981 93.0411 182.549C98.5876 174.118 105.747 168.934 110.679 169.403C115.612 169.872 122.727 182.561 122.727 182.561Z" fill="white" stroke="#263238" stroke-miterlimit="10" stroke-linecap="round"/>
<path d="M117.632 192.554L110.199 180.875C110.199 180.875 106.399 176.462 99.084 179.38" stroke="#263238" stroke-miterlimit="10" stroke-linecap="round"/>
<path d="M113.469 194.295L105.306 185.697C105.306 185.697 101.349 182.31 95.0439 185.284" stroke="#263238" stroke-miterlimit="10" stroke-linecap="round"/>
<path d="M97.3653 191.913L103.191 198.754L86.5234 212.224C86.5234 212.224 77.4168 216.744 74.0353 219.076C70.6539 221.409 52.1897 223.758 52.1897 223.758L48.7412 202.442C48.7412 202.442 59.5329 200.004 60.9614 198.642C62.3899 197.281 77.1434 179.91 79.0797 177.315C81.0159 174.721 90.9204 172.405 90.9204 172.405C90.9204 172.405 95.3509 170.96 100.3 166.557C105.25 162.155 111.617 163.611 114.016 165.826C116.415 168.041 122.944 174.196 124.233 178.404C125.522 182.611 126.158 187.181 122.978 186.003C117.693 184.045 114.976 172.991 108.581 174.392C105.657 175.033 97.7782 181.646 96.7404 182.494C96.7404 182.494 94.3187 188.397 97.3653 191.913Z" fill="white" stroke="#263238" stroke-miterlimit="10" stroke-linecap="round"/>
<path d="M141.659 187.488C141.649 187.343 141.587 187.207 141.485 187.105C141.382 187.002 141.246 186.94 141.101 186.93L139.483 186.869C139.404 186.866 139.325 186.878 139.251 186.906C139.177 186.933 139.109 186.975 139.051 187.029C138.993 187.083 138.946 187.148 138.913 187.22C138.88 187.292 138.861 187.37 138.858 187.449C138.855 187.528 138.868 187.607 138.896 187.681C138.923 187.755 138.965 187.824 139.019 187.882C139.073 187.94 139.138 187.986 139.21 188.019C139.282 188.052 139.359 188.071 139.439 188.074L141.057 188.135C141.213 188.14 141.364 188.085 141.481 187.981C141.597 187.877 141.669 187.733 141.682 187.577C141.678 187.547 141.67 187.517 141.659 187.488Z" fill="#263238" stroke="#263238" stroke-miterlimit="10" stroke-linecap="round"/>
<path d="M139.796 187.437C139.76 187.109 139.607 186.804 139.365 186.579C139.124 186.354 138.809 186.223 138.479 186.21L133.864 185.417L85.0502 182.276C84.6259 182.259 84.2026 182.327 83.8043 182.474C83.406 182.621 83.0406 182.845 82.7289 183.133C82.4172 183.422 82.1654 183.769 81.9878 184.154C81.8102 184.54 81.7103 184.957 81.6938 185.381C81.6774 185.805 81.7446 186.229 81.8917 186.627C82.0389 187.025 82.263 187.391 82.5514 187.702C82.8397 188.014 83.1866 188.266 83.5723 188.444C83.958 188.621 84.3748 188.721 84.7991 188.738L134.087 189.251L138.373 188.961C138.737 188.974 139.093 188.843 139.36 188.595C139.628 188.347 139.787 188.003 139.801 187.638C139.805 187.571 139.803 187.504 139.796 187.437Z" fill="#92E3A9" stroke="#263238" stroke-miterlimit="10" stroke-linecap="round"/>
<path d="M85.0501 182.276L99.134 183.185C99.7029 183.944 100.016 184.864 100.027 185.812C100.038 186.76 99.7465 187.687 99.1954 188.459C99.0781 188.606 98.9533 188.748 98.8215 188.883L84.8157 188.738C84.3914 188.721 83.9746 188.621 83.5889 188.444C83.2032 188.266 82.8563 188.014 82.568 187.702C82.2796 187.391 82.0555 187.025 81.9083 186.627C81.7612 186.229 81.694 185.805 81.7104 185.381C81.7269 184.957 81.8268 184.54 82.0044 184.154C82.182 183.769 82.4338 183.422 82.7455 183.133C83.0572 182.845 83.4226 182.621 83.8209 182.474C84.2192 182.327 84.6425 182.259 85.0668 182.276H85.0501Z" fill="#263238" stroke="#263238" stroke-miterlimit="10" stroke-linecap="round"/>
<path d="M74.0352 219.076C80.0169 217.078 91.668 209.183 94.7872 208.279C97.9064 207.375 105.54 205.935 110.618 202.442C115.695 198.949 119.507 196.003 122.442 192.108C125.377 188.213 122.542 185.027 116.817 187.22C111.092 189.413 103.14 193.425 103.14 193.425C103.14 193.425 99.1117 194.452 95.5461 190.546" fill="white"/>
<path d="M74.0352 219.076C80.0169 217.078 91.668 209.183 94.7872 208.279C97.9064 207.375 105.54 205.935 110.618 202.442C115.695 198.949 119.507 196.003 122.442 192.108C125.377 188.213 122.542 185.027 116.817 187.22C111.092 189.413 103.14 193.425 103.14 193.425C103.14 193.425 99.1117 194.452 95.5461 190.546" stroke="#263238" stroke-miterlimit="10" stroke-linecap="round"/>
<path d="M120.416 188.046L118.24 189.123C118.24 189.123 118.441 189.273 119.228 191.104C119.705 192.198 119.897 193.396 119.786 194.585C119.786 194.585 123.943 191.862 123.647 189.781C123.59 189.263 123.362 188.778 123 188.403C122.661 188.08 122.229 187.872 121.766 187.808C121.302 187.744 120.83 187.827 120.416 188.046Z" fill="white" stroke="#263238" stroke-miterlimit="10" stroke-linecap="round"/>
<path d="M59.8064 197.85C59.8064 197.85 65.1408 205.065 66.0169 211.314C66.5636 215.498 66.8506 219.711 66.8762 223.931L50.5882 227.837C50.5882 227.837 49.8516 217.703 48.4008 212.213C47.3793 208.518 46.1116 204.896 44.6064 201.371L59.8064 197.85Z" fill="white" stroke="#263238" stroke-miterlimit="10" stroke-linecap="round"/>
<path d="M60.5485 210.438C59.0977 203.363 54.271 198.123 54.271 198.123L15.73 204.261V247.785L61.3297 228.975C61.3297 228.975 61.9938 217.514 60.5485 210.438Z" fill="#263238" stroke="#263238" stroke-miterlimit="10" stroke-linecap="round"/>
<path d="M50.2198 229.338C50.2264 229.678 50.1311 230.013 49.946 230.299C49.761 230.585 49.4947 230.809 49.1814 230.942C48.868 231.076 48.522 231.112 48.1877 231.047C47.8534 230.983 47.5461 230.819 47.3053 230.578C47.0645 230.338 46.9012 230.03 46.8364 229.696C46.7716 229.362 46.8082 229.016 46.9416 228.702C47.0749 228.389 47.2989 228.123 47.5848 227.938C47.8707 227.753 48.2053 227.657 48.5458 227.664C48.9871 227.672 49.4079 227.852 49.72 228.164C50.0321 228.476 50.2112 228.897 50.2198 229.338Z" fill="white"/>
<path d="M55.0077 227.307C55.0066 227.644 54.9055 227.974 54.7173 228.254C54.529 228.534 54.2619 228.752 53.9498 228.88C53.6377 229.009 53.2946 229.042 52.9637 228.975C52.6329 228.909 52.3292 228.746 52.0909 228.507C51.8527 228.268 51.6906 227.963 51.6252 227.632C51.5597 227.301 51.5939 226.958 51.7233 226.647C51.8527 226.335 52.0715 226.069 52.3522 225.881C52.6329 225.694 52.9628 225.594 53.3002 225.594C53.5249 225.594 53.7474 225.638 53.955 225.724C54.1625 225.81 54.351 225.937 54.5096 226.096C54.6682 226.255 54.7939 226.444 54.8794 226.652C54.9648 226.859 55.0085 227.082 55.0077 227.307Z" fill="white"/>
<path d="M109.591 194.68L109.212 194.312" stroke="#263238" stroke-miterlimit="10" stroke-linecap="round"/>
<path d="M111.851 199.764C111.851 199.764 112.688 198.162 110.283 195.411" stroke="#263238" stroke-miterlimit="10" stroke-linecap="round"/>
<path d="M109.507 196.416C109.507 196.416 109.251 197.169 110.651 199.479" stroke="#263238" stroke-miterlimit="10" stroke-linecap="round"/>
<path d="M111.042 194.58C111.924 195.493 112.582 196.596 112.967 197.805" stroke="#263238" stroke-miterlimit="10" stroke-linecap="round"/>
</svg>
