<svg width="154" height="40" viewBox="0 0 154 40" fill="none" xmlns="http://www.w3.org/2000/svg">
<g clip-path="url(#clip0_472_541)">
<path d="M10.2702 1H0V11.2609H10.2702V1Z" fill="#7ED321"/>
<path d="M10.2702 13.8638H0V24.1363H10.2702V13.8638Z" fill="#7ED321"/>
<path d="M10.2702 26.7393H0V37.0002H10.2702V26.7393Z" fill="#7ED321"/>
<path d="M36.0001 26.6694H25.73V36.9303H36.0001V26.6694Z" fill="#7ED321"/>
<path d="M23.135 26.6694H12.8647V36.9303H23.135V26.6694Z" fill="#7ED321"/>
<path d="M23.135 13.7944H12.8647V24.0669H23.135V13.7944Z" fill="#7ED321"/>
</g>
<path d="M36.4708 0.635998H41.5107L47.0908 10.68H46.2628L52.0588 0.635998H57.0628L48.7468 14.352V24H44.4988V14.352L36.4708 0.635998ZM57.0237 0.635998H61.6677L72.2877 17.304H71.9637V0.635998H76.2117V24H71.8917L60.5877 6.324H61.2717V24H57.0237V0.635998ZM78.9403 0.635998H83.1883V15.18C83.1883 17.1 83.6743 18.486 84.6463 19.338C85.6303 20.19 86.8843 20.616 88.4083 20.616C89.9443 20.616 91.1983 20.19 92.1703 19.338C93.1423 18.486 93.6283 17.1 93.6283 15.18V0.635998H97.8763V15.18C97.8763 17.148 97.4983 18.828 96.7423 20.22C95.9863 21.612 94.9003 22.674 93.4843 23.406C92.0803 24.138 90.3883 24.504 88.4083 24.504C86.4283 24.504 84.7303 24.138 83.3143 23.406C81.9103 22.674 80.8303 21.612 80.0743 20.22C79.3183 18.828 78.9403 17.148 78.9403 15.18V0.635998ZM100.556 24V0.635998H115.28V4.308H104.804V10.464H114.38V14.1H104.804V24H100.556ZM116.607 24V0.635998H131.619V4.308H120.855V10.464H130.971V14.136H120.855V20.292H131.619V24H116.607ZM142.308 24.504C140.688 24.504 139.194 24.222 137.826 23.658C136.47 23.094 135.366 22.236 134.514 21.084C133.674 19.932 133.224 18.468 133.164 16.692H137.34C137.34 17.592 137.562 18.33 138.006 18.906C138.45 19.482 139.044 19.914 139.788 20.202C140.544 20.478 141.372 20.616 142.272 20.616C143.136 20.616 143.904 20.502 144.576 20.274C145.26 20.046 145.794 19.722 146.178 19.302C146.574 18.87 146.772 18.36 146.772 17.772C146.772 16.992 146.532 16.38 146.052 15.936C145.584 15.492 144.828 15.084 143.784 14.712L139.176 12.876C137.376 12.168 135.996 11.346 135.036 10.41C134.076 9.474 133.596 8.184 133.596 6.54C133.596 4.644 134.346 3.108 135.846 1.932C137.346 0.755998 139.44 0.167998 142.128 0.167998C144.744 0.167998 146.766 0.779999 148.194 2.004C149.622 3.216 150.432 4.908 150.624 7.08H146.448C146.292 6.156 145.872 5.418 145.188 4.866C144.504 4.302 143.484 4.02 142.128 4.02C140.928 4.02 139.98 4.272 139.284 4.776C138.588 5.268 138.24 5.892 138.24 6.648C138.24 7.296 138.456 7.812 138.888 8.196C139.332 8.568 140.016 8.928 140.94 9.276L146.052 11.256C147.78 11.928 149.106 12.774 150.03 13.794C150.954 14.814 151.416 16.092 151.416 17.628C151.416 19.032 151.062 20.25 150.354 21.282C149.646 22.302 148.614 23.094 147.258 23.658C145.902 24.222 144.252 24.504 142.308 24.504Z" fill="#7ED321"/>
<path d="M85.7765 23.318H88.8185L92.1125 30.464H91.9325L95.2265 23.318H98.1605V35H96.0185V25.766H96.3425L92.7065 33.722H91.3205L87.7025 25.802H87.9005V35H85.7765V23.318ZM100.177 26.27H102.589L104.911 33.146H104.533L106.531 26.27H108.691L105.343 36.584C105.001 37.616 104.578 38.363 104.074 38.825C103.576 39.287 102.967 39.518 102.247 39.518C101.833 39.518 101.428 39.47 101.032 39.374C100.642 39.284 100.243 39.14 99.835 38.942V37.07C100.165 37.274 100.483 37.424 100.789 37.52C101.101 37.616 101.413 37.664 101.725 37.664C102.007 37.664 102.253 37.586 102.463 37.43C102.679 37.28 102.865 37.067 103.021 36.791C103.177 36.521 103.309 36.206 103.417 35.846L103.687 35L100.177 26.27ZM110.525 35V23.318H114.647C115.961 23.318 116.984 23.642 117.716 24.29C118.454 24.938 118.823 25.856 118.823 27.044C118.823 28.22 118.454 29.132 117.716 29.78C116.984 30.428 115.961 30.752 114.647 30.752H112.667V35H110.525ZM112.667 28.898H114.647C115.307 28.898 115.805 28.724 116.141 28.376C116.477 28.028 116.645 27.584 116.645 27.044C116.645 26.492 116.477 26.039 116.141 25.685C115.805 25.331 115.307 25.154 114.647 25.154H112.667V28.898ZM126.583 35L126.313 32.876V29.366C126.313 28.754 126.187 28.301 125.935 28.007C125.689 27.713 125.269 27.566 124.675 27.566C124.333 27.566 124.036 27.617 123.784 27.719C123.532 27.821 123.337 27.968 123.199 28.16C123.067 28.346 123.001 28.574 123.001 28.844H120.679C120.679 28.184 120.838 27.647 121.156 27.233C121.474 26.813 121.93 26.507 122.524 26.315C123.124 26.117 123.841 26.018 124.675 26.018C125.431 26.018 126.091 26.141 126.655 26.387C127.219 26.627 127.657 26.999 127.969 27.503C128.281 28.007 128.437 28.652 128.437 29.438V35H126.583ZM123.721 35.252C122.971 35.252 122.344 35.123 121.84 34.865C121.342 34.601 120.967 34.256 120.715 33.83C120.463 33.404 120.337 32.942 120.337 32.444C120.337 31.892 120.481 31.43 120.769 31.058C121.063 30.68 121.477 30.398 122.011 30.212C122.545 30.02 123.175 29.924 123.901 29.924C124.375 29.924 124.822 29.96 125.242 30.032C125.668 30.104 126.091 30.2 126.511 30.32V31.562C126.181 31.454 125.821 31.37 125.431 31.31C125.041 31.25 124.675 31.22 124.333 31.22C123.829 31.22 123.415 31.313 123.091 31.499C122.767 31.685 122.605 32 122.605 32.444C122.605 32.768 122.737 33.047 123.001 33.281C123.265 33.515 123.685 33.632 124.261 33.632C124.699 33.632 125.071 33.536 125.377 33.344C125.683 33.152 125.914 32.912 126.07 32.624C126.232 32.336 126.313 32.048 126.313 31.76H126.817C126.817 32.39 126.7 32.972 126.466 33.506C126.232 34.034 125.884 34.457 125.422 34.775C124.966 35.093 124.399 35.252 123.721 35.252ZM134.916 39.518C133.914 39.518 133.056 39.38 132.342 39.104C131.634 38.828 131.091 38.465 130.713 38.015C130.335 37.571 130.146 37.088 130.146 36.566C130.146 35.948 130.371 35.468 130.821 35.126C131.271 34.79 131.838 34.622 132.522 34.622L134.07 35.198C133.482 35.198 133.029 35.309 132.711 35.531C132.393 35.753 132.234 36.062 132.234 36.458C132.234 36.872 132.471 37.202 132.945 37.448C133.425 37.7 134.082 37.826 134.916 37.826C135.522 37.826 136.047 37.736 136.491 37.556C136.935 37.376 137.277 37.142 137.517 36.854C137.763 36.566 137.886 36.26 137.886 35.936C137.886 35.72 137.814 35.543 137.67 35.405C137.526 35.267 137.304 35.198 137.004 35.198H134.07C133.482 35.198 132.945 35.105 132.459 34.919C131.979 34.727 131.595 34.472 131.307 34.154C131.025 33.83 130.884 33.47 130.884 33.074C130.884 32.708 130.986 32.393 131.19 32.129C131.394 31.859 131.67 31.652 132.018 31.508C132.372 31.364 132.768 31.292 133.206 31.292L133.746 31.994C133.572 31.994 133.404 32.03 133.242 32.102C133.086 32.168 132.957 32.267 132.855 32.399C132.753 32.531 132.702 32.696 132.702 32.894C132.702 33.134 132.804 33.329 133.008 33.479C133.212 33.629 133.566 33.704 134.07 33.704H137.004C137.934 33.704 138.663 33.875 139.191 34.217C139.725 34.559 139.992 35.084 139.992 35.792C139.992 36.422 139.785 37.019 139.371 37.583C138.957 38.153 138.369 38.618 137.607 38.978C136.851 39.338 135.954 39.518 134.916 39.518ZM135.024 32.3C134.334 32.3 133.701 32.171 133.125 31.913C132.555 31.649 132.099 31.283 131.757 30.815C131.415 30.347 131.244 29.798 131.244 29.168C131.244 28.526 131.415 27.968 131.757 27.494C132.099 27.02 132.555 26.657 133.125 26.405C133.701 26.147 134.334 26.018 135.024 26.018C135.696 26.018 136.317 26.147 136.887 26.405C137.457 26.657 137.916 27.02 138.264 27.494C138.612 27.968 138.786 28.526 138.786 29.168C138.786 29.798 138.612 30.347 138.264 30.815C137.916 31.283 137.457 31.649 136.887 31.913C136.317 32.171 135.696 32.3 135.024 32.3ZM135.042 30.824C135.594 30.824 136.008 30.665 136.284 30.347C136.56 30.029 136.698 29.636 136.698 29.168C136.698 28.664 136.557 28.259 136.275 27.953C135.999 27.647 135.582 27.494 135.024 27.494C134.484 27.494 134.07 27.647 133.782 27.953C133.494 28.259 133.35 28.664 133.35 29.168C133.35 29.636 133.494 30.029 133.782 30.347C134.076 30.665 134.496 30.824 135.042 30.824ZM138.12 27.422L137.148 26.864C137.148 26.342 137.268 25.886 137.508 25.496C137.754 25.1 138.078 24.794 138.48 24.578C138.888 24.362 139.338 24.254 139.83 24.254L139.722 26.288C139.2 26.288 138.801 26.381 138.525 26.567C138.255 26.747 138.12 27.032 138.12 27.422ZM145.285 35.252C144.541 35.252 143.86 35.06 143.242 34.676C142.624 34.292 142.129 33.755 141.757 33.065C141.385 32.369 141.199 31.556 141.199 30.626C141.199 29.666 141.382 28.841 141.748 28.151C142.12 27.461 142.615 26.933 143.233 26.567C143.851 26.201 144.535 26.018 145.285 26.018C145.981 26.018 146.581 26.159 147.085 26.441C147.595 26.717 148.003 27.095 148.309 27.575C148.621 28.049 148.831 28.586 148.939 29.186C149.047 29.786 149.053 30.404 148.957 31.04H142.891V29.888H147.454L147.04 30.158C147.058 29.876 147.043 29.591 146.995 29.303C146.953 29.015 146.869 28.751 146.743 28.511C146.617 28.271 146.437 28.079 146.203 27.935C145.975 27.785 145.681 27.71 145.321 27.71C144.889 27.71 144.523 27.818 144.223 28.034C143.923 28.25 143.695 28.544 143.539 28.916C143.383 29.288 143.305 29.708 143.305 30.176V31.022C143.305 31.514 143.377 31.949 143.521 32.327C143.671 32.705 143.89 33.002 144.178 33.218C144.472 33.434 144.841 33.542 145.285 33.542C145.699 33.542 146.047 33.446 146.329 33.254C146.611 33.062 146.791 32.774 146.869 32.39H149.011C148.921 32.954 148.708 33.452 148.372 33.884C148.042 34.31 147.613 34.646 147.085 34.892C146.557 35.132 145.957 35.252 145.285 35.252Z" fill="#7ED321"/>
<defs>
<clipPath id="clip0_472_541">
<rect width="36" height="36" fill="white" transform="translate(0 1)"/>
</clipPath>
</defs>
</svg>
